<?xml version="1.0" encoding="UTF-8" standalone="no"?>
<!DOCTYPE svg PUBLIC "-//W3C//DTD SVG 1.1//EN" "http://www.w3.org/Graphics/SVG/1.1/DTD/svg11.dtd">
<svg width="100%" height="100%" viewBox="0 0 240 240" version="1.1" xmlns="http://www.w3.org/2000/svg" xmlns:xlink="http://www.w3.org/1999/xlink" xml:space="preserve" xmlns:serif="http://www.serif.com/" style="fill-rule:evenodd;clip-rule:evenodd;stroke-linejoin:round;stroke-miterlimit:2;">
    <g transform="matrix(0.956817,0,0,0.879401,-1095.86,-178.081)">
        <path d="M1171.07,282.648C1171.07,282.623 1171.07,282.599 1171.07,282.574L1171.07,263.59C1171.07,263.568 1171.07,263.547 1171.07,263.525L1171.07,263.469C1171.07,262.495 1171.75,261.692 1172.62,261.586L1249.44,225.742C1249.75,225.419 1250.17,225.22 1250.63,225.22C1250.68,225.219 1250.73,225.221 1250.78,225.225C1251.07,225.2 1251.36,225.255 1251.64,225.39L1369.38,283.788C1370,284.096 1370.39,284.77 1370.39,285.512L1370.39,306.098C1370.39,306.119 1370.39,306.139 1370.39,306.159C1370.39,306.159 1370.39,345.281 1370.39,345.282L1370.39,394.921C1370.39,395.675 1369.98,396.358 1369.35,396.659L1251.52,452.54C1251.27,452.659 1251,452.71 1250.73,452.695C1250.53,452.707 1250.32,452.681 1250.12,452.613L1172.3,426.362C1171.57,426.116 1171.07,425.383 1171.07,424.552C1171.07,424.552 1171.07,345.758 1171.07,345.745L1171.07,282.648ZM1174.56,264.805L1174.56,280.093L1248.92,256.791L1248.9,230.118L1174.56,264.805ZM1366.91,286.731L1252.38,229.925L1252.4,256.906L1366.91,303.398L1366.91,286.731ZM1366.91,343.496L1366.91,307.443L1330.25,292.557L1330.25,345.929L1366.91,343.496ZM1249.08,448.292L1249,354.859L1174.56,347.83L1174.56,423.155L1249.08,448.292ZM1252.48,354.887L1252.56,447.91L1326.76,412.72C1326.76,412.693 1326.76,412.667 1326.76,412.641L1326.76,349.958L1252.48,354.887ZM1330.25,411.068L1366.91,393.68L1366.91,347.293L1330.25,349.727L1330.25,411.068ZM1174.56,284.038L1174.56,344.025L1249,351.054L1248.92,260.735L1174.56,284.038ZM1326.76,291.143L1252.41,260.953L1252.48,351.09L1326.76,346.16L1326.76,291.143Z" style="fill:rgb(34,34,34);"/>
    </g>
</svg>
