<?xml version="1.0" encoding="UTF-8" standalone="no"?>
<!DOCTYPE svg PUBLIC "-//W3C//DTD SVG 1.1//EN" "http://www.w3.org/Graphics/SVG/1.1/DTD/svg11.dtd">
<svg width="100%" height="100%" viewBox="0 0 240 240" version="1.1" xmlns="http://www.w3.org/2000/svg" xmlns:xlink="http://www.w3.org/1999/xlink" xml:space="preserve" xmlns:serif="http://www.serif.com/" style="fill-rule:evenodd;clip-rule:evenodd;stroke-linejoin:round;stroke-miterlimit:2;">
    <g transform="matrix(0.673111,0,0,0.617678,-331.108,-320.294)">
        <path d="M555.582,761.888L498.45,744.107C497.136,743.698 496.374,742.204 496.749,740.772C496.76,740.731 496.771,740.691 496.783,740.652C496.699,740.378 496.653,740.086 496.654,739.781L496.843,669.757C496.846,668.943 497.185,668.174 497.767,667.663L526.275,642.649C526.362,642.573 526.453,642.503 526.548,642.441L605.729,572.864L605.732,572.861L645.637,537.919C645.646,537.911 645.654,537.904 645.662,537.897C646.411,537.241 647.432,537.122 648.284,537.567C648.473,537.665 648.65,537.79 648.811,537.938L808.364,684.769C809.338,685.665 809.518,687.207 808.823,688.334L808.516,730.413C808.508,731.461 807.945,732.408 807.072,732.845L765.458,753.633L757.8,757.502C757.667,757.569 757.53,757.623 757.39,757.663L738.141,767.279L738.141,779.693L843.96,719.173C845.093,718.526 846.491,718.924 847.188,720.093C847.884,721.262 847.649,722.817 846.645,723.681L655.905,887.759C654.988,888.548 653.69,888.531 652.791,887.719L518.627,766.548C517.675,765.687 517.451,764.192 518.104,763.046C518.757,761.901 520.086,761.457 521.216,762.006L555.582,778.714L555.582,761.888ZM501.607,739.477L555.582,756.275L555.583,695.695C555.583,694.526 556.273,693.491 557.293,693.129L597.321,678.939L597.155,654.275L583.213,660.786L583.207,660.788L528.735,686.037C527.97,686.392 527.092,686.304 526.398,685.803C525.705,685.303 525.289,684.456 525.29,683.549L525.343,650.396L501.792,671.06L501.607,739.477ZM530.302,646.075C530.292,652.417 530.249,679.471 530.249,679.471L581.266,655.824L597.048,648.454L597.096,645.472L597.02,634.24C597.013,633.223 597.531,632.288 598.361,631.822L602.054,629.745L613.58,622.775L613.805,572.716L608.836,577.067L530.302,646.075ZM803.875,687.701L649.689,545.81L649.689,602.964L653.971,600.557C654.323,600.359 654.71,600.256 655.106,600.256C655.256,600.256 655.404,600.271 655.548,600.3C656.104,600.19 656.697,600.286 657.225,600.618L736.902,650.705C737.673,651.19 738.146,652.088 738.14,653.058L737.967,685.848C738.165,686.393 738.202,687.011 738.036,687.616C737.643,689.042 736.261,689.852 734.952,689.424L719.309,684.305L719.309,759.178L734.992,754.358C735.739,754.128 736.541,754.293 737.159,754.803C737.777,755.313 738.141,756.109 738.141,756.955L738.141,761.343L754.283,753.279L754.283,673.194C754.283,672.259 754.727,671.391 755.457,670.899C756.187,670.408 757.098,670.363 757.866,670.781L787.866,687.125C788.705,687.582 789.235,688.516 789.235,689.538L789.235,735.819L803.576,728.654L803.875,687.701ZM733.188,781.394C733.188,778.135 733.188,770.656 733.188,765.593C733.188,765.565 733.188,765.536 733.188,765.508C733.188,762.606 733.188,760.519 733.188,760.519L693.154,772.823C692.408,773.053 691.606,772.888 690.988,772.378C690.369,771.868 690.006,771.071 690.006,770.226L690.006,672.71C690.006,671.857 690.376,671.054 691.004,670.545C691.632,670.035 692.444,669.88 693.194,670.125L733.029,683.16C733.069,675.526 733.18,654.596 733.18,654.596L657.583,607.073L657.583,825.515L733.188,781.394ZM556.328,784.986L535.697,774.955L654.409,882.171L822.618,737.474L656.423,832.523C655.752,832.907 654.956,832.935 654.264,832.598L639.484,825.413L557.054,785.521C556.777,785.387 556.533,785.204 556.328,784.986ZM560.535,759.905L560.535,781.121L641.503,820.485L652.63,825.87L652.63,607.383L604.391,634.504C603.071,635.302 602.202,635.827 602.202,635.827L602.048,645.499L602.287,680.986C602.297,682.452 601.23,683.655 599.893,683.702L560.535,697.655L560.535,759.799C560.535,759.834 560.535,759.869 560.535,759.905ZM644.737,605.748L644.737,545.725L618.774,569.071L618.543,620.475L644.737,605.748ZM714.357,682.685L694.958,676.337L694.958,766.662L714.357,760.7L714.357,682.685ZM763.385,748.732L784.283,738.173L784.283,691.206L759.235,677.56L759.235,750.805L763.385,748.732ZM576.611,758.677L576.762,721.551C576.768,720.065 577.875,718.864 579.238,718.864L625.151,718.864C626.519,718.864 627.627,720.072 627.627,721.563L627.627,770.952C627.627,771.781 627.278,772.563 626.68,773.075C626.082,773.586 625.302,773.77 624.564,773.573L578.5,761.31C577.387,761.014 576.606,759.925 576.611,758.677ZM581.572,756.573C581.572,756.573 622.675,767.515 622.675,767.515C622.675,767.515 622.675,724.261 622.675,724.261L581.704,724.261L581.572,756.573Z" style="fill:rgb(34,34,34);"/>
    </g>
</svg>
