<?xml version="1.0" encoding="UTF-8" standalone="no"?>
<!DOCTYPE svg PUBLIC "-//W3C//DTD SVG 1.1//EN" "http://www.w3.org/Graphics/SVG/1.1/DTD/svg11.dtd">
<svg width="100%" height="100%" viewBox="0 0 1120 161" version="1.1" xmlns="http://www.w3.org/2000/svg" xmlns:xlink="http://www.w3.org/1999/xlink" xml:space="preserve" xmlns:serif="http://www.serif.com/" style="fill-rule:evenodd;clip-rule:evenodd;stroke-linejoin:round;stroke-miterlimit:2;">
    <g transform="matrix(14.8907,0,0,14.8907,-4408.09,-1467.43)">
        <path d="M296.677,98.547L302.989,98.547L302.989,100.695L299.185,100.695L299.185,101.799L302.761,101.799L302.761,103.959L299.185,103.959L299.185,107.247L296.677,107.247L296.677,98.547ZM306.265,98.547L306.265,103.647C306.265,103.927 306.289,104.169 306.337,104.373C306.385,104.577 306.463,104.749 306.571,104.889C306.679,105.029 306.823,105.133 307.003,105.201C307.183,105.269 307.409,105.303 307.681,105.303C308.217,105.303 308.587,105.155 308.791,104.859C308.995,104.563 309.097,104.159 309.097,103.647L309.097,98.547L311.605,98.547L311.605,103.395C311.605,104.075 311.535,104.665 311.395,105.165C311.255,105.665 311.031,106.081 310.723,106.413C310.415,106.745 310.013,106.993 309.517,107.157C309.021,107.321 308.417,107.403 307.705,107.403C307.017,107.403 306.425,107.335 305.929,107.199C305.433,107.063 305.025,106.839 304.705,106.527C304.385,106.215 304.147,105.809 303.991,105.309C303.835,104.809 303.757,104.199 303.757,103.479L303.757,98.547L306.265,98.547ZM318.013,107.247L315.349,101.703L315.349,107.247L313.033,107.247L313.033,98.547L316.117,98.547L318.793,104.079L318.793,98.547L321.109,98.547L321.109,107.247L318.013,107.247ZM322.141,102.867C322.141,102.163 322.243,101.531 322.447,100.971C322.651,100.411 322.943,99.937 323.323,99.549C323.703,99.161 324.163,98.863 324.703,98.655C325.243,98.447 325.853,98.343 326.533,98.343C327.093,98.343 327.613,98.421 328.093,98.577C328.573,98.733 328.999,98.961 329.371,99.261C329.743,99.561 330.053,99.925 330.301,100.353C330.549,100.781 330.717,101.271 330.805,101.823L328.333,101.823C328.245,101.399 328.051,101.063 327.751,100.815C327.451,100.567 327.073,100.443 326.617,100.443C326.073,100.443 325.627,100.645 325.279,101.049C324.931,101.453 324.757,102.059 324.757,102.867C324.757,103.683 324.931,104.293 325.279,104.697C325.627,105.101 326.073,105.303 326.617,105.303C327.073,105.303 327.457,105.175 327.769,104.919C328.081,104.663 328.281,104.327 328.369,103.911L330.829,103.911C330.741,104.463 330.573,104.955 330.325,105.387C330.077,105.819 329.765,106.185 329.389,106.485C329.013,106.785 328.583,107.013 328.099,107.169C327.615,107.325 327.093,107.403 326.533,107.403C325.853,107.403 325.243,107.299 324.703,107.091C324.163,106.883 323.703,106.585 323.323,106.197C322.943,105.809 322.651,105.335 322.447,104.775C322.243,104.215 322.141,103.579 322.141,102.867ZM334.381,107.247L331.873,107.247L331.873,98.547L334.381,98.547L334.381,107.247ZM344.209,100.959C344.433,101.519 344.545,102.159 344.545,102.879C344.545,103.599 344.433,104.239 344.209,104.799C343.985,105.359 343.671,105.831 343.267,106.215C342.863,106.599 342.381,106.893 341.821,107.097C341.261,107.301 340.649,107.403 339.985,107.403C339.321,107.403 338.709,107.301 338.149,107.097C337.589,106.893 337.107,106.599 336.703,106.215C336.299,105.831 335.985,105.359 335.761,104.799C335.537,104.239 335.425,103.599 335.425,102.879C335.425,102.159 335.537,101.519 335.761,100.959C335.985,100.399 336.299,99.925 336.703,99.537C337.107,99.149 337.589,98.853 338.149,98.649C338.709,98.445 339.321,98.343 339.985,98.343C340.649,98.343 341.261,98.445 341.821,98.649C342.381,98.853 342.863,99.149 343.267,99.537C343.671,99.925 343.985,100.399 344.209,100.959ZM338.185,101.775C338.081,102.079 338.029,102.447 338.029,102.879C338.029,103.311 338.083,103.679 338.191,103.983C338.299,104.287 338.445,104.537 338.629,104.733C338.813,104.929 339.021,105.073 339.253,105.165C339.485,105.257 339.729,105.303 339.985,105.303C340.233,105.303 340.475,105.257 340.711,105.165C340.947,105.073 341.157,104.929 341.341,104.733C341.525,104.537 341.671,104.287 341.779,103.983C341.887,103.679 341.941,103.311 341.941,102.879C341.941,102.447 341.887,102.079 341.779,101.775C341.671,101.471 341.525,101.219 341.341,101.019C341.157,100.819 340.947,100.673 340.711,100.581C340.475,100.489 340.233,100.443 339.985,100.443C339.729,100.443 339.485,100.489 339.253,100.581C339.021,100.673 338.813,100.819 338.629,101.019C338.445,101.219 338.297,101.471 338.185,101.775ZM350.569,107.247L347.905,101.703L347.905,107.247L345.589,107.247L345.589,98.547L348.673,98.547L351.349,104.079L351.349,98.547L353.665,98.547L353.665,107.247L350.569,107.247ZM357.409,98.547L360.157,98.547L363.313,107.247L360.589,107.247L360.145,105.795L357.373,105.795L356.929,107.247L354.253,107.247L357.409,98.547ZM357.961,103.923L359.569,103.923L358.777,101.307L357.961,103.923ZM366.541,105.087L370.597,105.087L370.597,107.247L364.033,107.247L364.033,98.547L366.541,98.547L366.541,105.087Z" style="fill:rgb(246,185,44);"/>
    </g>
</svg>
