<?xml version="1.0" encoding="UTF-8" standalone="no"?>
<!DOCTYPE svg PUBLIC "-//W3C//DTD SVG 1.1//EN" "http://www.w3.org/Graphics/SVG/1.1/DTD/svg11.dtd">
<svg width="100%" height="100%" viewBox="0 0 1038 161" version="1.1" xmlns="http://www.w3.org/2000/svg" xmlns:xlink="http://www.w3.org/1999/xlink" xml:space="preserve" xmlns:serif="http://www.serif.com/" style="fill-rule:evenodd;clip-rule:evenodd;stroke-linejoin:round;stroke-miterlimit:2;">
    <g>
        <path d="M212.2,160.3L174.4,160.3L174.4,110.7L129.4,110.7L129.4,160.3L91.5,160.3L91.5,29.1L129.3,29.1L129.3,78.1L174.3,78.1L174.3,29.1L212.1,29.1L212.2,160.3Z" style="fill:rgb(236,236,236);fill-rule:nonzero;"/>
        <path d="M319.3,29.1L366.9,160.3L325.8,160.3L319.1,138.4L277.3,138.4L270.6,160.3L230.3,160.3L277.9,29.1L319.3,29.1ZM282.4,20.4L301,0L343.3,0L314.5,20.4L282.4,20.4ZM310.4,110.2L298.5,70.8L286.2,110.2L310.4,110.2Z" style="fill:rgb(236,236,236);fill-rule:nonzero;"/>
        <path d="M444.3,29.1C451.7,29.1 458.4,29.6 464.7,30.5C470.9,31.5 476.3,33.2 480.9,35.8C485.5,38.4 489.1,42 491.7,46.5C494.3,51 495.6,56.8 495.6,63.8C495.6,69.2 494.8,74 493.2,78.1C491.6,82.2 489,85.9 485.2,89.3C489.8,92.1 493.5,95.8 496.2,100.5C499,105.2 500.4,111.2 500.4,118.4C500.4,125.9 499.1,132.3 496.5,137.6C493.9,142.9 490.3,147.2 485.6,150.5C480.9,153.8 475.3,156.3 468.7,157.8C462.1,159.4 454.8,160.2 446.7,160.2L386.8,160.2L386.8,29.1L444.3,29.1ZM445.4,80.9C449,80.9 451.8,79.8 453.7,77.7C455.6,75.6 456.6,73.1 456.6,70.4C456.6,67.6 455.6,65.2 453.7,63C451.8,60.8 449,59.7 445.4,59.7L424.6,59.7L424.6,80.9L445.4,80.9ZM447.7,129.7C451.9,129.7 455.2,128.6 457.5,126.4C459.8,124.2 460.9,121.6 460.9,118.4C460.9,115.1 459.8,112.4 457.5,110.3C455.2,108.1 452,107 447.7,107L424.5,107L424.5,129.6L447.7,129.6L447.7,129.7Z" style="fill:rgb(236,236,236);fill-rule:nonzero;"/>
        <rect x="526" y="29.1" width="37.8" height="131.2" style="fill:rgb(236,236,236);fill-rule:nonzero;"/>
        <path d="M585.6,61.5L585.6,29.1L701.7,29.1L701.7,61.5L662.4,61.5L662.4,160.3L624.6,160.3L624.6,61.5L585.6,61.5Z" style="fill:rgb(236,236,236);fill-rule:nonzero;"/>
        <path d="M786.4,29.1L834,160.3L792.9,160.3L786.2,138.4L744.4,138.4L737.7,160.3L697.4,160.3L745,29.1L786.4,29.1ZM777.5,110.2L765.6,70.8L753.3,110.2L777.5,110.2Z" style="fill:rgb(236,236,236);fill-rule:nonzero;"/>
        <path d="M829.4,61.5L829.4,29.1L945.5,29.1L945.5,61.5L906.2,61.5L906.2,160.3L868.4,160.3L868.4,61.5L829.4,61.5Z" style="fill:rgb(236,236,236);fill-rule:nonzero;"/>
    </g>
</svg>
