<?xml version="1.0" encoding="UTF-8" standalone="no"?>
<!DOCTYPE svg PUBLIC "-//W3C//DTD SVG 1.1//EN" "http://www.w3.org/Graphics/SVG/1.1/DTD/svg11.dtd">
<svg width="100%" height="100%" viewBox="0 0 800 800" version="1.1" xmlns="http://www.w3.org/2000/svg" xmlns:xlink="http://www.w3.org/1999/xlink" xml:space="preserve" xmlns:serif="http://www.serif.com/" style="fill-rule:evenodd;clip-rule:evenodd;stroke-linejoin:round;stroke-miterlimit:2;">
    <g>
        <path d="M400,2.4C619.2,2.4 797.6,180.8 797.6,400C797.6,619.3 619.2,797.6 400,797.6C180.7,797.6 2.4,619.2 2.4,400C2.4,180.8 180.8,2.4 400,2.4ZM10.6,400C10.6,426.1 13.2,451.6 18.1,476.2L171.7,476.2C163.7,452.3 159.3,426.6 159.3,400C159.3,382.5 161.2,365.5 164.7,349.1L13.9,349.1C11.7,365.8 10.6,382.8 10.6,400ZM57.2,385.3L57.2,448L50.8,448L50.8,379.2L61.1,379.2L83.8,440.7L106.5,379.2L116.6,379.2L116.6,448L110.3,448L110.3,385.3L86.9,448L80.5,448L57.2,385.3ZM191.9,296.1C176.2,327.4 167.4,362.7 167.3,400C167.3,437.3 176.2,472.6 191.9,503.9L191.9,296.1ZM247.8,224.3C229.7,239.9 214.1,258.3 201.6,278.7L201.6,521.3C214.1,541.7 229.8,560.1 247.8,575.7L247.8,224.3ZM303.6,188.3C287.1,195.9 271.6,205.3 257.4,216.4L257.4,583.6C271.6,594.6 287.1,604 303.6,611.6L303.6,188.3ZM400,10.6C205.3,10.6 43.6,154.2 15.1,341L166.7,341C172.3,319 180.8,298.2 192,279.1C195,273.9 198.2,268.8 201.6,263.9C214.6,245.1 230.1,228.2 247.8,213.7C250.9,211.1 254.1,208.6 257.4,206.2C297.4,176.7 346.7,159.3 400,159.3C453.7,159.3 503.2,176.9 543.3,206.7C545.8,208.6 548.3,210.5 550.8,212.5C562.6,222.1 573.5,232.7 583.3,244.2C585.3,246.6 587.3,249 589.3,251.5C601.4,266.8 611.6,283.6 619.7,301.6C621,304.4 622.2,307.2 623.3,310.1C627.4,320.1 630.7,330.4 633.4,341L784.9,341C756.4,154.2 594.7,10.6 400,10.6ZM420.2,57.6L420.3,66.1L386,66.5L386.1,84.8L418.5,84.5L418.6,93L386.2,93.3L386.4,113.5L420.8,113.1L420.9,121.7L376.4,122.2L375.8,58L420.2,57.6ZM564.6,95.8L575.8,100.7L543.4,115.1L552.3,160.5L541.4,155.7L534.3,119.1L521.1,125L513.1,143.2L503.8,139.2L529.6,80.4L538.9,84.5L526.2,113.3L564.6,95.8ZM117.2,185.8L124,191L103.2,218.3L117.8,229.4L137.4,203.7L144.2,208.8L124.6,234.6L140.6,246.8L161.4,219.5L168.3,224.7L141.4,260L90.3,221.2L117.2,185.8ZM681,179L694.8,179.6L703,189L686.6,185.5L681,179ZM684.2,189.1L651.9,249.5L644.7,241.2L652,228.1L633.6,207.1L619.7,212.6L612.9,204.9L676.8,180.5L684.2,189.1ZM656.2,220.3L672,191.9L641.9,204L656.2,220.3ZM216.8,116.7L241,164.9L232.2,169.4L203.4,112.1L217.8,104.8L255.7,144.4L246.5,90.4L261,83.1L289.7,140.5L280.9,144.9L256.7,96.7L265.6,152.6L256.3,157.3L216.8,116.7ZM640.7,400C640.7,426.6 636.3,452.3 628.3,476.2L781.7,476.2L781.7,476.6C786.7,451.8 789.3,426.2 789.3,400C789.3,382.8 788.2,365.8 786,349.1L635.2,349.1C638.8,365.5 640.7,382.5 640.7,400ZM731.5,376.1L739.7,376.1L710.7,405.6L740.7,444.9L733,444.9L706.2,410.2L696.8,419.8L696.8,444.9L690.5,444.9L690.5,376.1L696.8,376.1L696.8,411.4L731.5,376.1ZM494.2,434.5L592.8,530.1C601.8,516.8 609.4,502.5 615.5,487.5L526.9,403L494.2,434.5ZM454.7,472.5L556.1,572.3C567.5,561.9 577.9,550.4 587.1,538L487.4,441L454.7,472.5ZM313.3,351L313.3,615.9C340.1,626.7 369.3,632.7 400,632.7C456.5,632.7 508.4,612.4 548.8,578.7L441.5,472.9L441.8,472.5L441.5,472.2L613.2,306.8C605.3,289 595.3,272.4 583.5,257.2L399.7,434.3L313.3,351ZM399.7,268.9L487.5,184.4C460.5,173.4 431,167.3 400.1,167.3C369,167.3 339.4,173.5 312.3,184.6L399.7,268.9ZM439.2,307L537.4,212.4C524.8,203.1 511.2,195.1 496.8,188.5L406.5,275.5L439.2,307ZM445.9,313.5L478.6,345L577.4,249.7C567.6,238.2 556.7,227.6 544.8,218.1L445.9,313.5ZM432.4,389.6L313.3,274.8L313.3,337.8L399.7,421.1L432.4,389.6ZM313.3,261.8L439.2,383.2L471.9,351.7L313.5,199L313.3,198.8L313.3,261.8ZM619.1,477.5L619.1,476.2L619.7,476.2C628,452.3 632.6,426.7 632.6,400C632.6,370.5 627,342.2 616.9,316.2L533.7,396.4L619.1,477.5ZM400,789.4C585.7,789.4 741.5,658.7 780,484.4L625.3,484.4C591.1,575.6 503,640.7 399.9,640.7C296.9,640.7 208.8,575.6 174.5,484.4L19.8,484.4C58.5,658.7 214.3,789.4 400,789.4ZM134.9,534.1C135.3,536.8 135.2,539.4 134.5,541.8C133.8,544.2 132.5,546.4 130.6,548.4C128.6,550.4 125.9,552.1 122.3,553.6C118.7,555.1 115.5,555.8 112.7,555.7C109.9,555.6 107.4,555 105.3,553.8C103.1,552.6 101.3,550.8 99.6,548.5C98,546.2 96.6,543.6 95.4,540.7L91.3,530.6L128.3,515.5L132.4,525.6C133.7,528.6 134.5,531.4 134.9,534.1ZM126.6,543.4C128.1,541.8 129,540.2 129.4,538.4C129.8,536.7 129.8,534.8 129.3,532.9C128.9,531 128.3,529.2 127.5,527.3L125.8,523.3L98.4,534.5L100,538.5C100.8,540.3 101.6,542.1 102.6,543.7C103.6,545.4 104.9,546.7 106.4,547.6C107.9,548.6 109.7,549.1 111.9,549.2C114,549.3 116.7,548.7 119.7,547.5C122.9,546.4 125.2,545 126.6,543.4ZM175.1,600.4L170.8,603.5L158.3,586.1L149,592.7L160.8,609.2L156.4,612.2L144.7,595.8L134.5,603.1L146.9,620.5L142.5,623.6L126.5,601.1L159.1,577.9L175.1,600.4ZM190.1,645.8C189.5,644.5 189.1,643.2 188.9,641.8C188.7,640.4 188.8,639.1 189.2,637.7C189.6,636.3 190.3,635 191.4,633.8C192.6,632.4 194.1,631.5 195.7,631C197.3,630.5 198.9,630.4 200.6,630.7C202.3,630.9 203.9,631.5 205.5,632.3C207.1,633.1 208.5,634.1 209.8,635.2C211.2,636.4 212.3,637.8 213.3,639.2C214.3,640.6 214.9,642.1 215.3,643.7C215.7,645.3 215.8,646.9 215.5,648.6C215.2,650.3 214.6,652 213.6,653.8L209.1,649.8C209.6,648.7 209.9,647.6 209.9,646.6C209.9,645.6 209.8,644.6 209.4,643.7C209.1,642.8 208.6,641.9 208,641.1C207.4,640.3 206.8,639.6 206,639C205.4,638.5 204.8,638 204,637.6C203.2,637.1 202.3,636.8 201.4,636.6C200.5,636.4 199.6,636.4 198.7,636.5C197.8,636.7 197,637.1 196.3,637.9C195.2,639.1 194.8,640.5 195.1,641.9C195.4,643.3 196,644.8 197.1,646.2L200,650.1C201,651.4 201.9,652.8 202.7,654.2C203.6,655.6 204.2,657.1 204.5,658.7C204.9,660.2 204.9,661.7 204.6,663.3C204.3,664.8 203.5,666.4 202.1,667.9C200.8,669.4 199.3,670.4 197.6,670.9C195.9,671.4 194.2,671.6 192.5,671.4C190.8,671.2 189,670.7 187.3,669.9C185.6,669.1 184,668 182.5,666.7C180.8,665.2 179.4,663.5 178.4,661.8C177.4,660.1 176.7,658.3 176.4,656.5C176.1,654.7 176.2,652.9 176.6,651C177,649.2 177.9,647.4 179.1,645.7L183.7,649.8C182.3,652.3 181.8,654.6 182.2,656.8C182.6,659 183.9,661.1 186,662.9C188,664.6 189.9,665.6 191.9,665.9C193.9,666.1 195.5,665.5 196.8,664.1C197.5,663.3 197.9,662.5 198,661.7C198.1,660.8 198.1,660 197.9,659C197.7,658.1 197.3,657.2 196.8,656.3C196.3,655.4 195.7,654.5 195,653.6L192,649.6C191.4,648.3 190.7,647 190.1,645.8ZM266.1,675L260.4,717.4L254.4,714.1L255.8,704.9L240.5,696.7L233.6,703L228,700L260,671.8L266.1,675ZM256.6,699.3L259.6,679.2L244.6,692.8L256.6,699.3ZM319.3,720.4L318,720.1L311.3,718.3L306.9,734.6L300.8,733L311.2,694.4L323.5,697.7C326.1,698.4 328.4,699.2 330.4,700.1C332.4,701 334,702 335.2,703.3C336.4,704.5 337.2,705.9 337.6,707.6C338,709.2 337.9,711.2 337.3,713.4C336.6,716.2 335.3,718.2 333.6,719.5C331.9,720.8 329.7,721.5 327.1,721.6L331.3,741.3L324.5,739.5L320.6,721C320.1,720.6 319.7,720.5 319.3,720.4ZM312.6,713.3L319.6,715.2C321,715.6 322.3,715.9 323.5,716C324.7,716.2 325.8,716.2 326.8,715.9C327.8,715.7 328.6,715.2 329.3,714.6C330,713.9 330.5,712.9 330.9,711.6C331.3,710.2 331.3,709 331,708.1C330.7,707.1 330.2,706.3 329.5,705.7C328.7,705 327.8,704.5 326.7,704C325.6,703.6 324.3,703.2 322.9,702.8L316,700.9L312.6,713.3ZM390.8,730.8L389.5,730.8L382.6,730.6L382.1,747.4L375.8,747.2L376.9,707.2L389.6,707.5C392.3,707.6 394.7,707.8 396.8,708.2C398.9,708.6 400.7,709.2 402.2,710.1C403.6,711 404.7,712.2 405.5,713.7C406.3,715.2 406.6,717.1 406.5,719.4C406.4,722.3 405.7,724.5 404.3,726.2C402.9,727.9 401,729 398.5,729.7L407.2,747.9L400.1,747.7L392,730.6C391.6,730.8 391.2,730.8 390.8,730.8ZM382.7,725.5L389.9,725.7C391.4,725.7 392.7,725.7 393.9,725.6C395.1,725.5 396.2,725.2 397.1,724.8C398,724.4 398.7,723.7 399.2,722.9C399.7,722.1 400,721 400,719.6C400,718.2 399.8,717 399.3,716.2C398.8,715.3 398.1,714.7 397.2,714.2C396.3,713.7 395.3,713.4 394.1,713.2C392.9,713 391.6,712.9 390.1,712.9L383,712.7L382.7,725.5ZM483.2,725.1C482.9,727.8 482.1,730.2 480.9,732.3C479.7,734.5 478.1,736.3 476,737.8C474,739.3 471.5,740.3 468.7,741C465.9,741.6 463.2,741.7 460.7,741.2C458.2,740.7 455.9,739.7 454,738.3C452,736.9 450.3,735 448.9,732.7C447.5,730.4 446.5,727.8 445.8,724.8C445.1,721.8 445,719 445.3,716.3C445.6,713.6 446.4,711.2 447.6,709.1C448.8,707 450.5,705.2 452.5,703.7C454.6,702.2 457,701.1 459.9,700.5C462.7,699.9 465.4,699.8 467.9,700.3C470.4,700.8 472.6,701.7 474.6,703.2C476.6,704.6 478.3,706.5 479.7,708.8C481.1,711.1 482.1,713.7 482.8,716.7C483.3,719.6 483.5,722.4 483.2,725.1ZM454.4,729.6C455.4,731.3 456.7,732.7 458,733.8C459.4,734.8 460.9,735.5 462.5,735.9C464.1,736.2 465.8,736.2 467.5,735.8C469.2,735.4 470.7,734.7 472,733.8C473.3,732.8 474.4,731.6 475.2,730C476,728.5 476.5,726.7 476.7,724.7C476.9,722.7 476.8,720.4 476.2,718C475.7,715.6 474.9,713.5 473.8,711.7C472.8,710 471.5,708.6 470.2,707.5C468.8,706.5 467.3,705.8 465.7,705.5C464.1,705.2 462.4,705.2 460.7,705.6C459,706 457.4,706.7 456.1,707.6C454.8,708.6 453.7,709.8 452.9,711.3C452.1,712.8 451.6,714.6 451.4,716.6C451.2,718.6 451.3,720.9 451.9,723.3C452.6,725.8 453.4,727.9 454.4,729.6ZM552.1,703.9L554.4,708.7L530.1,720.4L512.8,684.3L518.5,681.6L533.5,712.8L552.1,703.9ZM608.5,665.1L611.8,669.3L590.5,685.8L566,654.2L571,650.4L592.2,677.7L608.5,665.1ZM653.8,606.9C655.2,609.2 656.1,611.5 656.5,614C656.9,616.4 656.7,618.9 656.1,621.3C655.4,623.7 654.2,626.1 652.3,628.3C650.5,630.6 648.4,632.3 646.1,633.4C643.8,634.6 641.5,635.2 639,635.3C636.5,635.4 634.1,635 631.5,634.1C629,633.2 626.5,631.8 624.2,629.8C621.8,627.9 619.9,625.8 618.5,623.5C617.1,621.2 616.2,618.9 615.8,616.4C615.4,614 615.6,611.5 616.3,609.1C617,606.7 618.3,604.3 620.1,602C621.9,599.7 624,598 626.2,596.9C628.5,595.7 630.8,595.1 633.3,595C635.7,594.9 638.2,595.3 640.7,596.2C643.2,597.1 645.7,598.6 648,600.5C650.5,602.5 652.4,604.6 653.8,606.9ZM634.1,628.3C636,629 637.8,629.4 639.5,629.3C641.2,629.3 642.8,628.9 644.3,628.1C645.8,627.4 647.1,626.3 648.2,624.9C649.3,623.6 650,622.1 650.5,620.5C650.9,618.9 651,617.3 650.7,615.6C650.4,613.9 649.7,612.2 648.6,610.5C647.5,608.8 646,607.1 644.1,605.5C642.2,603.9 640.2,602.8 638.3,602C636.4,601.3 634.6,600.9 632.9,601C631.2,601 629.6,601.4 628.1,602.2C626.6,602.9 625.4,604 624.3,605.3C623.2,606.7 622.4,608.1 622,609.7C621.6,611.3 621.5,612.9 621.8,614.6C622.1,616.3 622.8,618 623.9,619.7C625,621.4 626.5,623.1 628.4,624.7C630.2,626.4 632.2,627.6 634.1,628.3ZM672.1,560.7C671,561.7 669.9,562.4 668.6,563C667.3,563.5 666,563.8 664.6,563.8C663.2,563.8 661.7,563.5 660.2,562.7C658.5,561.9 657.2,560.8 656.3,559.4C655.4,558 654.9,556.5 654.6,554.8C654.4,553.1 654.4,551.4 654.8,549.7C655.1,548 655.7,546.3 656.4,544.8C657.2,543.1 658.1,541.6 659.3,540.3C660.4,539 661.7,537.9 663.1,537.1C664.5,536.3 666.1,535.8 667.8,535.5C669.5,535.3 671.3,535.4 673.3,535.9L670.7,541.4C669.5,541.2 668.4,541.2 667.4,541.5C666.4,541.7 665.5,542.2 664.7,542.7C663.9,543.3 663.2,544 662.6,544.8C662,545.6 661.5,546.4 661.1,547.3C660.8,548 660.5,548.8 660.3,549.7C660.1,550.6 660,551.5 660,552.4C660.1,553.3 660.3,554.2 660.7,555C661.1,555.8 661.8,556.4 662.7,556.9C664.2,557.6 665.6,557.6 666.9,557C668.2,556.3 669.4,555.3 670.5,553.9L673.4,550C674.4,548.7 675.4,547.5 676.6,546.2C677.8,545 679,544 680.4,543.2C681.7,542.4 683.2,542 684.8,541.8C686.4,541.7 688.1,542 689.9,542.9C691.7,543.8 693.1,544.9 694.1,546.3C695.1,547.7 695.7,549.3 696,551.1C696.3,552.8 696.3,554.6 695.9,556.5C695.6,558.4 695,560.2 694.2,562C693.2,564.1 692,565.9 690.6,567.3C689.2,568.8 687.7,569.9 686,570.7C684.3,571.5 682.6,571.9 680.7,572C678.8,572.1 676.9,571.8 674.9,571.1L677.6,565.5C680.3,566.2 682.7,566 684.7,565C686.7,564 688.3,562.2 689.6,559.6C690.7,557.2 691.1,555.1 690.8,553.1C690.5,551.1 689.4,549.7 687.7,548.9C686.8,548.5 685.9,548.3 685,548.4C684.1,548.5 683.3,548.8 682.5,549.2C681.7,549.7 680.9,550.3 680.2,551L678.1,553.4L675.1,557.4C674.1,558.6 673.1,559.7 672.1,560.7Z"/>
    </g>
</svg>
