<?xml version="1.0" encoding="UTF-8"?>
<!-- Generator: Adobe Illustrator 24.0.0, SVG Export Plug-In . SVG Version: 6.00 Build 0)  -->
<svg xmlns="http://www.w3.org/2000/svg" xmlns:xlink="http://www.w3.org/1999/xlink" version="1.1" id="Capa_2_1_" x="0px" y="0px" viewBox="0 0 1037.1 160.3" style="enable-background:new 0 0 1037.1 160.3;" xml:space="preserve">
<style type="text/css">
	.st0{fill:#F6B92C;}
</style>
<g>
	<path class="st0" d="M212.2,160.3h-37.8v-49.6h-45v49.6H91.5V29.1h37.8v49h45v-49h37.8L212.2,160.3L212.2,160.3z"></path>
	<path class="st0" d="M319.3,29.1l47.6,131.2h-41.1l-6.7-21.9h-41.8l-6.7,21.9h-40.3l47.6-131.2C277.9,29.1,319.3,29.1,319.3,29.1z    M282.4,20.4L301,0h42.3l-28.8,20.4H282.4z M310.4,110.2l-11.9-39.4l-12.3,39.4H310.4z"></path>
	<path class="st0" d="M444.3,29.1c7.4,0,14.1,0.5,20.4,1.4c6.2,1,11.6,2.7,16.2,5.3s8.2,6.2,10.8,10.7c2.6,4.5,3.9,10.3,3.9,17.3   c0,5.4-0.8,10.2-2.4,14.3s-4.2,7.8-8,11.2c4.6,2.8,8.3,6.5,11,11.2c2.8,4.7,4.2,10.7,4.2,17.9c0,7.5-1.3,13.9-3.9,19.2   s-6.2,9.6-10.9,12.9c-4.7,3.3-10.3,5.8-16.9,7.3c-6.6,1.6-13.9,2.4-22,2.4h-59.9V29.1H444.3z M445.4,80.9c3.6,0,6.4-1.1,8.3-3.2   s2.9-4.6,2.9-7.3c0-2.8-1-5.2-2.9-7.4s-4.7-3.3-8.3-3.3h-20.8v21.2H445.4z M447.7,129.7c4.2,0,7.5-1.1,9.8-3.3s3.4-4.8,3.4-8   c0-3.3-1.1-6-3.4-8.1c-2.3-2.2-5.5-3.3-9.8-3.3h-23.2v22.6h23.2V129.7z"></path>
	<path class="st0" d="M526,160.3V29.1h37.8v131.2H526z"></path>
	<path class="st0" d="M585.6,61.5V29.1h116.1v32.4h-39.3v98.8h-37.8V61.5H585.6z"></path>
	<path class="st0" d="M786.4,29.1L834,160.3h-41.1l-6.7-21.9h-41.8l-6.7,21.9h-40.3L745,29.1C745,29.1,786.4,29.1,786.4,29.1z    M777.5,110.2l-11.9-39.4l-12.3,39.4H777.5z"></path>
	<path class="st0" d="M829.4,61.5V29.1h116.1v32.4h-39.3v98.8h-37.8V61.5H829.4z"></path>
</g>
</svg>
