<?xml version="1.0" encoding="UTF-8"?>
<svg xmlns="http://www.w3.org/2000/svg" width="20" height="20" viewBox="0 0 20 20" fill="none">
  <g clip-path="url(#clip0_61_175)">
    <path d="M19.6 10.0002C19.6 4.69826 15.3019 0.400218 10 0.400219C4.69812 0.400219 0.400085 4.69826 0.400085 10.0002C0.400085 15.3021 4.69812 19.6001 10 19.6001C15.3019 19.6001 19.6 15.3021 19.6 10.0002Z" fill="#222222"></path>
    <path fill-rule="evenodd" clip-rule="evenodd" d="M9.01721 14.6013C8.69197 14.9265 8.16418 14.9265 7.83893 14.6013C7.51369 14.276 7.51369 13.7482 7.83893 13.423L11.2619 10L7.83893 6.57709C7.51369 6.25185 7.51369 5.72366 7.83893 5.39842C8.16418 5.07318 8.69197 5.07318 9.01721 5.39842L13.0297 9.41052C13.3549 9.73615 13.3549 10.2636 13.0297 10.5892L9.01721 14.6013Z" fill="#FDC643"></path>
  </g>
  <defs>
    <clipPath id="clip0_61_175">
      <rect width="20" height="20" fill="white" transform="translate(0 20) rotate(-90)"></rect>
    </clipPath>
  </defs>
</svg>
