<?xml version="1.0" encoding="UTF-8"?>
<!-- Generator: Adobe Illustrator 24.0.0, SVG Export Plug-In . SVG Version: 6.00 Build 0)  -->
<svg xmlns="http://www.w3.org/2000/svg" xmlns:xlink="http://www.w3.org/1999/xlink" version="1.1" id="Capa_1" x="0px" y="0px" viewBox="0 0 1037.1 160.3" style="enable-background:new 0 0 1037.1 160.3;" xml:space="preserve">
<style type="text/css">
	.st0{fill:#ECECEC;}
</style>
<g>
	<path class="st0" d="M8.5,65.7c3.1-8.4,7.5-15.6,13.2-21.4c5.7-5.8,12.7-10.3,20.8-13.5c8.1-3.1,17.3-4.7,27.6-4.7   c8.4,0,16.3,1.2,23.5,3.5c7.2,2.4,13.7,5.8,19.3,10.3c5.6,4.5,10.3,10,14,16.5c3.7,6.5,6.3,13.8,7.6,22.2H97.2   c-1.3-6.4-4.3-11.5-8.8-15.2c-4.5-3.7-10.2-5.6-17.1-5.6c-8.2,0-14.9,3-20.2,9.1c-5.2,6.1-7.9,15.2-7.9,27.4   c0,12.3,2.6,21.5,7.9,27.6c5.2,6.1,12,9.1,20.2,9.1c6.9,0,12.7-1.9,17.4-5.8c4.7-3.9,7.7-8.9,9-15.2h37.1   c-1.3,8.3-3.9,15.7-7.6,22.3c-3.7,6.5-8.4,12-14.1,16.6c-5.7,4.5-12.2,8-19.4,10.3c-7.3,2.4-15.2,3.5-23.6,3.5   c-10.3,0-19.4-1.6-27.6-4.7c-8.1-3.1-15.1-7.6-20.8-13.5c-5.7-5.8-10.1-13-13.2-21.4c-3.1-8.4-4.6-18-4.6-28.8   C3.9,83.6,5.4,74.1,8.5,65.7z"></path>
	<path class="st0" d="M197.4,114.2v46.1h-37.8V29.1h54.3c8.6,0,16.5,0.6,23.9,1.8c7.4,1.2,13.7,3.4,19.1,6.6s9.6,7.5,12.6,12.9   c3,5.4,4.5,12.4,4.5,20.8c0,9.4-2.2,17-6.5,22.8s-9.9,10.3-16.8,13.4l31.1,52.8h-42.5L213,114.2H197.4z M197.4,85.6h20.8   c5.5,0,9.6-1.2,12.3-3.6s4-5.5,4-9.2s-1.3-6.8-4-9.3c-2.7-2.5-6.8-3.7-12.3-3.7h-20.8V85.6z"></path>
	<path class="st0" d="M408.2,29.1v32.4h-66v16.6h62.6v32.6h-62.6v17h66.8v32.6H304.3V29.1H408.2z"></path>
	<path class="st0" d="M513.3,29.1l47.6,131.2h-41.1l-6.7-21.9h-41.8l-6.7,21.9h-40.3l47.6-131.2H513.3z M504.4,110.2l-11.9-39.4   l-12.3,39.4H504.4z"></path>
	<path class="st0" d="M614.8,70v90.3h-34V29.1h55.4l22.3,81.6l21.9-81.6h54.8v131.2h-34V69.5L675,160.3h-33.8L614.8,70z"></path>
	<path class="st0" d="M892.1,123.4c-3.4,8.4-8.1,15.6-14.2,21.3c-6.1,5.8-13.4,10.2-21.8,13.3c-8.4,3.1-17.7,4.6-27.7,4.6   c-10,0-19.2-1.5-27.7-4.6c-8.4-3.1-15.7-7.5-21.8-13.3c-6.1-5.8-10.8-12.9-14.2-21.3s-5.1-18.1-5.1-28.9s1.7-20.5,5.1-28.9   s8.1-15.6,14.2-21.4c6.1-5.8,13.4-10.3,21.8-13.4c8.4-3.1,17.7-4.6,27.7-4.6c10,0,19.2,1.5,27.7,4.6c8.4,3.1,15.7,7.5,21.8,13.4   c6.1,5.8,10.8,13,14.2,21.4s5.1,18.1,5.1,28.9S895.5,114.9,892.1,123.4z M801.4,111.1c1.6,4.6,3.8,8.4,6.6,11.3s5.9,5.1,9.4,6.5   c3.5,1.4,7.2,2.1,11,2.1c3.7,0,7.4-0.7,10.9-2.1c3.6-1.4,6.7-3.6,9.5-6.5s5-6.7,6.6-11.3c1.6-4.6,2.4-10.1,2.4-16.6   s-0.8-12.1-2.4-16.6c-1.6-4.6-3.8-8.4-6.6-11.4c-2.8-3-5.9-5.2-9.5-6.6c-3.6-1.4-7.2-2.1-10.9-2.1c-3.9,0-7.5,0.7-11,2.1   c-3.5,1.4-6.6,3.6-9.4,6.6c-2.8,3-5,6.8-6.6,11.4c-1.6,4.6-2.4,10.1-2.4,16.6S799.7,106.5,801.4,111.1z"></path>
	<path class="st0" d="M923.7,49.3c3.2-5.2,7.4-9.6,12.7-13c5.2-3.4,11.2-6,17.9-7.7s13.5-2.5,20.5-2.5c11.7,0,22.1,1.3,31.3,3.8   c9.2,2.5,17.9,6.1,26.2,10.7l-15.9,31.3c-2.4-1.4-5.2-2.9-8.5-4.3s-6.8-2.7-10.6-3.9s-7.7-2.1-11.8-2.8c-4-0.7-8-1.1-12-1.1   c-5.1,0-9,0.6-11.8,1.8s-4.2,3.1-4.2,5.6c0,3.9,3.6,6.6,10.9,8.1l19.4,4c6.2,1.3,12,2.9,17.5,4.7c5.5,1.8,10.3,4.2,14.5,7.1   s7.4,6.5,9.9,10.9s3.6,9.8,3.6,16.3c0,7.5-1.5,14-4.5,19.5c-3,5.5-7.1,10.2-12.2,13.8c-5.1,3.7-11.2,6.5-18.2,8.3   c-7,1.9-14.5,2.8-22.4,2.8c-13.9,0-26-1.8-36.4-5.3c-10.4-3.6-19.2-8.1-26.6-13.5l18.6-30.6c2.8,2.1,5.9,4,9.4,5.9   c3.5,1.9,7.2,3.5,11.1,4.9c3.9,1.4,8,2.5,12.3,3.3c4.3,0.8,8.5,1.3,12.8,1.3c5.3,0,9.5-0.5,12.6-1.6c3.1-1.1,4.6-3,4.6-5.8   c0-2.8-1.7-5-5.2-6.6c-3.4-1.6-8.2-3.1-14.4-4.4l-14.8-3.1c-5.2-1.1-10.2-2.6-15.1-4.4c-4.9-1.9-9.3-4.3-13.1-7.4   c-3.9-3.1-7-6.8-9.3-11.3c-2.4-4.5-3.5-9.8-3.5-16.1C918.9,60.7,920.5,54.5,923.7,49.3z"></path>
</g>
</svg>
