<?xml version="1.0" encoding="UTF-8"?>
<!-- Generator: Adobe Illustrator 24.0.0, SVG Export Plug-In . SVG Version: 6.00 Build 0)  -->
<svg xmlns="http://www.w3.org/2000/svg" xmlns:xlink="http://www.w3.org/1999/xlink" version="1.1" id="Capa_1" x="0px" y="0px" viewBox="0 0 255 255" style="enable-background:new 0 0 255 255;" xml:space="preserve">
<style type="text/css">
	.st0{fill:#212121;}
</style>
<g>
	<g>
		<path class="st0" d="M75.9,42.7c-1.5-0.5-2.7-1.5-3.6-3.2l-0.4-0.7c-0.1-0.2-0.1-0.4,0.1-0.5l1.5-0.8c0.2-0.1,0.4-0.1,0.5,0.1    l0.3,0.6c0.6,1.1,1.4,1.8,2.3,2.2c0.9,0.4,1.8,0.3,2.7-0.2c0.9-0.5,1.4-1.2,1.6-2.2c0.2-1,0-2-0.6-3c-0.4-0.7-0.9-1.2-1.4-1.6    c-0.6-0.3-1.2-0.6-1.8-0.7c-0.7-0.1-1.7-0.3-3.2-0.5c-1.5-0.2-2.6-0.4-3.5-0.6c-0.9-0.2-1.8-0.6-2.6-1.1c-0.8-0.5-1.5-1.3-2.1-2.4    c-0.9-1.6-1.2-3.1-0.8-4.6c0.4-1.5,1.3-2.6,2.8-3.4c1.6-0.9,3.1-1.1,4.6-0.6c1.5,0.5,2.7,1.6,3.7,3.3l0.4,0.8    c0.1,0.2,0.1,0.4-0.1,0.5L75,24.9c-0.2,0.1-0.4,0.1-0.5-0.1L74,24c-0.6-1.1-1.4-1.8-2.3-2.2c-0.9-0.4-1.8-0.3-2.7,0.2    c-0.8,0.5-1.3,1.1-1.5,2c-0.2,0.9,0,1.9,0.6,2.9c0.4,0.6,0.8,1.1,1.3,1.5c0.5,0.4,1.1,0.6,1.8,0.8c0.7,0.2,1.7,0.3,3.1,0.5    c1.7,0.2,3.1,0.4,4,0.7c0.9,0.2,1.7,0.6,2.4,1.1c0.7,0.5,1.3,1.2,1.9,2.1c0.9,1.7,1.2,3.3,0.8,4.9s-1.4,2.8-2.9,3.6    C79,43,77.5,43.2,75.9,42.7z"></path>
		<path class="st0" d="M88.9,36c-1.4-0.6-2.5-1.8-3.1-3.6l-4.7-12.3c-0.7-1.7-0.7-3.3,0-4.7c0.6-1.4,1.8-2.5,3.5-3.1    c1.7-0.7,3.3-0.7,4.7,0s2.5,1.8,3.1,3.6l0.2,0.6c0.1,0.2,0,0.4-0.2,0.5l-1.7,0.8c-0.2,0.1-0.4,0-0.5-0.2l-0.3-0.8    c-0.4-1-1-1.8-1.9-2.2c-0.8-0.4-1.8-0.4-2.8-0.1c-1,0.4-1.6,1-2,1.9c-0.4,0.9-0.3,1.8,0,2.9l4.8,12.7c0.4,1,1,1.8,1.9,2.2    c0.9,0.4,1.8,0.4,2.7,0.1c1-0.4,1.7-1,2-1.9c0.4-0.9,0.3-1.8-0.1-2.9l-0.3-0.8c-0.1-0.2,0-0.4,0.2-0.5l1.8-0.6    c0.2-0.1,0.4,0,0.5,0.2l0.2,0.5c0.7,1.7,0.7,3.3,0,4.8s-1.8,2.5-3.5,3.1C91.9,36.7,90.3,36.7,88.9,36z"></path>
		<path class="st0" d="M111.6,30.4l-5.8-10c0-0.1-0.1-0.1-0.2-0.1l-3,0.6c-0.1,0-0.1,0.1-0.1,0.2l2.3,10.6c0,0.2,0,0.4-0.3,0.4    l-1.8,0.4c-0.2,0-0.4,0-0.4-0.3L97.3,8.8c0-0.2,0-0.4,0.3-0.4l5.7-1.2c1.7-0.4,3.2,0,4.5,1c1.3,1,2.2,2.5,2.6,4.5    c0.3,1.5,0.3,2.9-0.1,4.1c-0.4,1.2-1.1,2.2-2.1,2.9c-0.1,0-0.1,0.1-0.1,0.2l6.1,10l0.1,0.1c0,0.2-0.1,0.3-0.3,0.3l-1.8,0.4    C111.9,30.7,111.7,30.6,111.6,30.4z M100.2,10.2L102,19c0,0.1,0.1,0.1,0.2,0.1l3.1-0.7c1.1-0.2,1.8-0.8,2.3-1.8    c0.5-1,0.6-2.1,0.3-3.5s-0.9-2.4-1.7-3.1c-0.8-0.7-1.8-0.9-2.8-0.7l-3.1,0.7C100.2,10,100.1,10.1,100.2,10.2z"></path>
		<path class="st0" d="M117.9,28.4c-1.2-1.1-1.8-2.5-1.9-4.4l-0.8-13c-0.1-1.9,0.4-3.4,1.4-4.6s2.5-1.8,4.3-2    c1.8-0.1,3.4,0.4,4.6,1.4c1.2,1.1,1.9,2.5,2,4.4l0.8,13c0.1,1.8-0.4,3.4-1.4,4.6c-1.1,1.2-2.5,1.9-4.4,2    C120.6,30,119.1,29.5,117.9,28.4z M124.9,26.4c0.6-0.8,0.9-1.7,0.8-2.8L125,10.4c-0.1-1.2-0.5-2.1-1.2-2.8c-0.7-0.7-1.6-1-2.7-0.9    c-1.1,0.1-1.9,0.5-2.5,1.2c-0.6,0.8-0.9,1.7-0.8,2.9l0.8,13.2c0.1,1.1,0.5,2,1.2,2.7c0.7,0.7,1.6,1,2.6,0.9    C123.4,27.6,124.2,27.2,124.9,26.4z"></path>
		<path class="st0" d="M132.3,29l2-24c0-0.2,0.1-0.3,0.4-0.3l1.8,0.2c0.2,0,0.3,0.1,0.3,0.4l-1.9,22c0,0.1,0,0.1,0.1,0.2l8.1,0.7    c0.2,0,0.3,0.1,0.3,0.4l-0.1,1.5c0,0.2-0.1,0.3-0.4,0.3l-10.4-0.9C132.3,29.4,132.2,29.3,132.3,29z"></path>
		<path class="st0" d="M145.5,30.5l5.3-23.5c0.1-0.2,0.2-0.3,0.4-0.3l1.8,0.4c0.2,0.1,0.3,0.2,0.3,0.4l-4.8,21.6    c0,0.1,0,0.1,0.1,0.2l7.9,1.8c0.2,0.1,0.3,0.2,0.3,0.4l-0.3,1.5c-0.1,0.2-0.2,0.3-0.4,0.3l-10.2-2.3    C145.5,30.8,145.4,30.7,145.5,30.5z"></path>
		<path class="st0" d="M183.5,19.7c0.4,1.6,0.2,3.3-0.6,5.2c-0.9,1.8-2,3.1-3.5,3.8c-1.5,0.7-3,0.7-4.5,0l-3.3-1.5    c-0.1,0-0.1,0-0.2,0.1l-4.5,9.7c-0.1,0.2-0.3,0.3-0.5,0.2l-1.6-0.8c-0.2-0.1-0.3-0.3-0.2-0.5l10.1-21.9c0.1-0.2,0.3-0.3,0.5-0.2    l5.3,2.5C182.1,16.9,183.1,18.1,183.5,19.7z M178.2,26.5c1-0.5,1.7-1.4,2.3-2.7c0.6-1.3,0.8-2.5,0.5-3.5c-0.2-1.1-0.8-1.8-1.8-2.3    l-2.9-1.4c-0.1,0-0.1,0-0.2,0.1l-3.8,8.3c0,0.1,0,0.1,0.1,0.2l2.9,1.4C176.3,27,177.3,27,178.2,26.5z"></path>
		<path class="st0" d="M184.8,46.8l1.6-4.2c0,0,0-0.1,0-0.1c0,0,0-0.1-0.1-0.1l-5.4-3.5c0,0-0.1,0-0.1,0c0,0-0.1,0-0.1,0.1l-3.1,3.2    c-0.1,0.2-0.3,0.2-0.5,0.1l-1.5-1c-0.1-0.1-0.2-0.1-0.2-0.2c0-0.1,0-0.2,0.1-0.3l17.5-17.4c0.2-0.2,0.3-0.2,0.5-0.1l1.8,1.1    c0.2,0.1,0.3,0.3,0.2,0.5l-8.5,23.2l0,0.1c-0.1,0.2-0.3,0.2-0.4,0.1l-1.6-1C184.7,47.2,184.7,47,184.8,46.8z M182.3,37.5l4.7,3    c0.1,0,0.1,0,0.2-0.1l5.1-13.3c0-0.1,0-0.1,0-0.1c0,0-0.1,0-0.1,0.1l-9.9,10.2C182.3,37.4,182.3,37.4,182.3,37.5z"></path>
		<path class="st0" d="M195.8,55.9l4.4-10.6c0-0.1,0-0.1,0-0.2l-2.3-2c-0.1-0.1-0.1-0.1-0.2,0l-7.1,8.2c-0.2,0.2-0.3,0.2-0.5,0    l-1.4-1.2c-0.2-0.2-0.2-0.3,0-0.5l15.8-18.2c0.2-0.2,0.3-0.2,0.5,0l4.4,3.8c1.3,1.1,1.9,2.5,1.9,4.2c0,1.7-0.7,3.2-2,4.8    c-1,1.2-2.1,1.9-3.4,2.3c-1.2,0.4-2.4,0.4-3.6,0c-0.1,0-0.2,0-0.2,0.1l-4.3,10.9l-0.1,0.1c-0.1,0.1-0.2,0.1-0.4,0l-1.4-1.2    C195.7,56.2,195.7,56.1,195.8,55.9z M205,34.5l-5.9,6.8c-0.1,0.1-0.1,0.1,0,0.2l2.4,2.1c0.8,0.7,1.8,1,2.8,0.8    c1-0.2,2-0.8,2.9-1.9c0.9-1.1,1.4-2.1,1.5-3.2s-0.3-2-1.1-2.7l-2.4-2.1C205.1,34.5,205.1,34.5,205,34.5z"></path>
		<path class="st0" d="M205.7,66.7l2.8-3.5c0,0,0.1-0.1,0-0.1c0,0,0-0.1-0.1-0.1l-4.2-4.9c0,0-0.1-0.1-0.1-0.1s-0.1,0-0.1,0    l-3.9,2.2c-0.2,0.1-0.3,0.1-0.5-0.1l-1.2-1.4c-0.1-0.1-0.1-0.2-0.1-0.3s0.1-0.2,0.2-0.2l21.8-11.6c0.2-0.1,0.4-0.1,0.5,0.1    l1.4,1.6c0.2,0.2,0.2,0.3,0,0.5l-14.8,19.8l-0.1,0c-0.2,0.1-0.3,0.1-0.5,0l-1.2-1.4C205.6,67.1,205.6,66.9,205.7,66.7z     M206.1,57.1l3.6,4.3c0,0.1,0.1,0.1,0.2,0l8.7-11.2c0-0.1,0-0.1,0-0.1c0,0-0.1,0-0.1,0l-12.4,6.9C206.1,57,206.1,57,206.1,57.1z"></path>
		<path class="st0" d="M239.3,74.7l0.9,1.6c0.1,0.2,0.1,0.4-0.2,0.5l-21.4,11.2c-0.2,0.1-0.4,0.1-0.5-0.1l-0.8-1.6    c-0.1-0.2-0.1-0.4,0.2-0.5l16.8-8.8c0.1,0,0.1-0.1,0.1-0.1c0,0-0.1-0.1-0.1-0.1l-8.5,0.3c-0.2,0-0.3-0.1-0.4-0.2    c-0.1-0.2-0.1-0.3,0-0.5l5-6.8c0-0.1,0-0.1,0-0.1s-0.1,0-0.1,0l-16.8,8.8c-0.2,0.1-0.4,0.1-0.5-0.2l-0.8-1.6    c-0.1-0.2-0.1-0.4,0.2-0.5l21.4-11.2c0.2-0.1,0.4-0.1,0.5,0.1l0.9,1.6c0.1,0.2,0.1,0.4,0,0.5l-5.4,7.4c0,0,0,0.1,0,0.1    c0,0,0.1,0.1,0.1,0.1l9.1-0.2C239,74.4,239.2,74.5,239.3,74.7z"></path>
		<path class="st0" d="M222.9,100.3l3.9-2.2c0,0,0.1,0,0.1-0.1c0,0,0-0.1,0-0.1l-2-6.1c0,0,0-0.1-0.1-0.1c0,0-0.1,0-0.1,0l-4.5,0.5    c-0.2,0-0.4,0-0.4-0.3l-0.6-1.7c0-0.1,0-0.2,0-0.3c0-0.1,0.1-0.1,0.3-0.1l24.5-2.6c0.2,0,0.4,0.1,0.4,0.3l0.7,2    c0.1,0.2,0,0.4-0.2,0.5l-21.2,12.7l-0.1,0c-0.2,0.1-0.3,0-0.4-0.2l-0.6-1.7C222.6,100.6,222.7,100.5,222.9,100.3z M226.9,91.5    l1.8,5.3c0,0.1,0.1,0.1,0.2,0.1l12.3-7.1c0.1,0,0.1-0.1,0.1-0.1c0,0,0,0-0.1,0L227,91.4C226.9,91.4,226.9,91.5,226.9,91.5z     M246.6,86.3c0.1-0.1,0.2-0.1,0.3-0.1l4.4,0.9c0.2,0.1,0.3,0.2,0.4,0.3l0.5,1.4c0,0.1,0,0.2,0,0.3c-0.1,0.1-0.2,0.1-0.3,0    l-4.5-1.1c-0.2-0.1-0.3-0.2-0.4-0.3l-0.4-1.1C246.6,86.5,246.6,86.4,246.6,86.3z"></path>
		<path class="st0" d="M225.2,104.6c0.9-1.3,2.3-2.1,4.2-2.4l0.8-0.2c0.2,0,0.4,0,0.4,0.3l0.3,1.7c0,0.2-0.1,0.4-0.3,0.4l-0.7,0.1    c-1.2,0.2-2.2,0.7-2.8,1.5c-0.6,0.8-0.9,1.7-0.7,2.7c0.2,1,0.7,1.7,1.5,2.2c0.8,0.5,1.9,0.7,3,0.4c0.8-0.1,1.4-0.4,1.9-0.9    c0.5-0.4,0.9-0.9,1.3-1.5s0.8-1.5,1.5-2.9c0.6-1.3,1.2-2.4,1.7-3.2c0.5-0.8,1.1-1.5,1.9-2.1c0.8-0.6,1.7-1,2.9-1.2    c1.8-0.3,3.3-0.1,4.6,0.8c1.3,0.8,2,2.1,2.4,3.8c0.3,1.8,0,3.3-0.9,4.6c-0.9,1.3-2.4,2.1-4.3,2.5l-0.9,0.2c-0.2,0-0.4-0.1-0.4-0.3    l-0.3-1.7c0-0.2,0.1-0.4,0.3-0.4l0.9-0.2c1.2-0.2,2.2-0.7,2.8-1.5c0.6-0.8,0.9-1.6,0.7-2.7c-0.2-0.9-0.7-1.6-1.4-2.1    c-0.8-0.5-1.8-0.6-3-0.4c-0.7,0.1-1.3,0.4-1.8,0.8s-0.9,0.9-1.3,1.5s-0.9,1.5-1.5,2.7c-0.8,1.6-1.4,2.8-1.9,3.6    c-0.5,0.8-1.1,1.5-1.8,2c-0.7,0.5-1.6,0.9-2.6,1.1c-1.9,0.4-3.5,0.1-4.9-0.8c-1.4-0.9-2.2-2.2-2.5-3.9    C223.9,107.4,224.2,105.9,225.2,104.6z"></path>
		<path class="st0" d="M226.6,124.9l24.1-0.4c0.2,0,0.4,0.1,0.4,0.3l0,1.8c0,0.2-0.1,0.4-0.3,0.4l-24.1,0.4c-0.2,0-0.4-0.1-0.4-0.3    l0-1.8C226.2,125,226.3,124.9,226.6,124.9z"></path>
		<path class="st0" d="M249.9,144.7l-0.2,1.8c0,0.2-0.2,0.3-0.4,0.3l-24-2.6c-0.2,0-0.3-0.2-0.3-0.4l0.2-2.1c0-0.2,0.1-0.3,0.3-0.4    l19-4.9c0.1,0,0.1,0,0.1-0.1s0-0.1-0.1-0.1l-18.1-1.9c-0.2,0-0.3-0.2-0.3-0.4l0.2-1.8c0-0.2,0.2-0.3,0.4-0.3l24,2.6    c0.2,0,0.3,0.2,0.3,0.4l-0.2,2c0,0.2-0.1,0.3-0.3,0.4l-19,4.9c-0.1,0-0.1,0-0.1,0.1c0,0,0,0.1,0.1,0.1l18.2,2    C249.8,144.4,249.9,144.5,249.9,144.7z"></path>
		<path class="st0" d="M243.2,164.6l2.1-7.9c0-0.1,0-0.1-0.1-0.2l-8.5-2.3c-0.1,0-0.1,0-0.2,0.1l-1.3,5c-0.1,0.2-0.2,0.3-0.4,0.2    l-1.5-0.4c-0.2-0.1-0.3-0.2-0.2-0.4l1.3-5c0-0.1,0-0.1-0.1-0.2l-10.4-2.8c-0.2-0.1-0.3-0.2-0.3-0.4l0.5-1.7    c0.1-0.2,0.2-0.3,0.4-0.3l23.3,6.2c0.2,0.1,0.3,0.2,0.2,0.4l-2.7,10.1c-0.1,0.2-0.2,0.3-0.4,0.3l-1.4-0.4    C243.2,164.9,243.1,164.8,243.2,164.6z"></path>
		<path class="st0" d="M221.3,162.8c1.5-0.6,3.1-0.5,4.8,0.2l11.9,5.2c1.7,0.7,2.9,1.9,3.5,3.3s0.5,3.1-0.2,4.7    c-0.7,1.7-1.8,2.8-3.3,3.4c-1.5,0.6-3.1,0.5-4.8-0.2l-11.9-5.1c-1.7-0.7-2.8-1.8-3.4-3.3c-0.6-1.5-0.5-3.1,0.2-4.8    C218.7,164.5,219.8,163.3,221.3,162.8z M219.9,169.9c0.4,0.9,1.1,1.6,2.2,2l12.1,5.2c1.1,0.5,2.1,0.5,3,0.2s1.6-1,2-2    c0.4-1,0.4-1.9,0-2.8c-0.4-0.9-1.1-1.6-2.2-2l-12.1-5.2c-1-0.5-2-0.5-2.9-0.2c-0.9,0.3-1.6,1-2,1.9    C219.6,168,219.5,169,219.9,169.9z"></path>
		<path class="st0" d="M177,214.2c1.5,0.5,2.7,1.6,3.5,3.3l0.4,0.7c0.1,0.2,0.1,0.4-0.2,0.5l-1.5,0.8c-0.2,0.1-0.4,0.1-0.5-0.2    l-0.3-0.6c-0.6-1.1-1.3-1.9-2.2-2.3c-0.9-0.4-1.8-0.4-2.7,0.1c-0.9,0.4-1.5,1.2-1.7,2.1c-0.3,1-0.1,2,0.4,3    c0.4,0.7,0.8,1.3,1.4,1.6c0.5,0.4,1.1,0.6,1.8,0.8c0.7,0.2,1.7,0.4,3.2,0.6c1.5,0.2,2.6,0.5,3.5,0.7c0.9,0.2,1.7,0.7,2.5,1.2    c0.8,0.6,1.4,1.4,2,2.5c0.8,1.6,1,3.2,0.6,4.6c-0.5,1.4-1.5,2.5-3,3.3c-1.6,0.8-3.1,0.9-4.6,0.4c-1.5-0.6-2.7-1.7-3.5-3.4    l-0.4-0.8c-0.1-0.2-0.1-0.4,0.2-0.5l1.6-0.8c0.2-0.1,0.4-0.1,0.5,0.2l0.4,0.8c0.6,1.1,1.3,1.9,2.2,2.3c0.9,0.4,1.8,0.4,2.7-0.1    c0.8-0.4,1.4-1.1,1.6-2c0.2-0.9,0.1-1.9-0.5-3c-0.3-0.7-0.7-1.2-1.2-1.5c-0.5-0.4-1.1-0.7-1.8-0.9c-0.7-0.2-1.7-0.4-3-0.6    c-1.7-0.3-3.1-0.6-4-0.8s-1.7-0.7-2.4-1.2c-0.7-0.5-1.3-1.3-1.8-2.2c-0.9-1.7-1.1-3.4-0.6-4.9c0.5-1.5,1.5-2.7,3-3.5    C174,213.8,175.5,213.7,177,214.2z"></path>
		<path class="st0" d="M163.8,220.3c1.4,0.7,2.4,1.9,3,3.7l4.2,12.5c0.6,1.7,0.5,3.3-0.2,4.7c-0.7,1.4-1.9,2.4-3.6,3    c-1.7,0.6-3.3,0.5-4.7-0.2c-1.4-0.7-2.4-1.9-3-3.7l-0.2-0.6c-0.1-0.2,0-0.4,0.2-0.4l1.7-0.7c0.2-0.1,0.4,0,0.4,0.2l0.3,0.8    c0.4,1.1,0.9,1.8,1.8,2.3c0.8,0.4,1.7,0.5,2.7,0.2c1-0.3,1.7-0.9,2.1-1.8c0.4-0.9,0.4-1.8,0.1-2.9l-4.3-12.8    c-0.4-1.1-0.9-1.8-1.8-2.2c-0.8-0.4-1.7-0.5-2.7-0.2c-1,0.3-1.7,0.9-2.1,1.8c-0.4,0.9-0.4,1.8-0.1,2.9l0.3,0.8    c0.1,0.2,0,0.4-0.2,0.4l-1.8,0.5c-0.2,0.1-0.4,0-0.4-0.2l-0.2-0.5c-0.6-1.8-0.5-3.4,0.2-4.8c0.7-1.4,1.9-2.4,3.6-3    C160.8,219.6,162.4,219.6,163.8,220.3z"></path>
		<path class="st0" d="M140.8,225l5.4,10.2c0,0.1,0.1,0.1,0.2,0.1l3-0.5c0.1,0,0.1-0.1,0.1-0.2l-1.8-10.7c0-0.2,0.1-0.4,0.3-0.4    l1.8-0.3c0.2,0,0.4,0.1,0.4,0.3l4.1,23.8c0,0.2-0.1,0.4-0.3,0.4l-5.8,1c-1.7,0.3-3.2-0.1-4.4-1.2c-1.3-1.1-2.1-2.6-2.4-4.6    c-0.3-1.5-0.2-2.9,0.3-4.1c0.5-1.2,1.2-2.1,2.3-2.8c0.1,0,0.1-0.1,0.1-0.2l-5.7-10.3l-0.1-0.1c0-0.2,0.1-0.3,0.3-0.3l1.8-0.3    C140.6,224.7,140.7,224.8,140.8,225z M151.4,245.7l-1.5-8.8c0-0.1-0.1-0.1-0.2-0.1l-3.1,0.5c-1.1,0.2-1.9,0.7-2.4,1.7    c-0.5,0.9-0.6,2.1-0.4,3.5c0.2,1.4,0.8,2.4,1.5,3.2c0.8,0.7,1.7,1,2.8,0.8l3.1-0.5C151.4,245.8,151.5,245.8,151.4,245.7z"></path>
		<path class="st0" d="M134.4,226.7c1.1,1.1,1.7,2.6,1.8,4.5l0.2,13c0,1.9-0.5,3.4-1.6,4.5c-1.1,1.2-2.6,1.7-4.4,1.8    c-1.8,0-3.3-0.5-4.5-1.6c-1.2-1.1-1.7-2.6-1.8-4.5l-0.2-13c0-1.8,0.5-3.3,1.6-4.5c1.1-1.2,2.6-1.8,4.4-1.8    C131.8,225.1,133.3,225.6,134.4,226.7z M127.4,228.4c-0.7,0.7-1,1.7-1,2.8l0.2,13.2c0,1.2,0.4,2.1,1.1,2.8c0.7,0.7,1.6,1.1,2.7,1    c1.1,0,1.9-0.4,2.6-1.1c0.6-0.7,1-1.7,0.9-2.8l-0.2-13.2c0-1.1-0.4-2.1-1-2.8s-1.5-1.1-2.6-1C128.9,227.3,128,227.7,127.4,228.4z"></path>
		<path class="st0" d="M120.1,225.5l-3,23.9c0,0.2-0.2,0.3-0.4,0.3l-1.8-0.2c-0.2,0-0.3-0.2-0.3-0.4l2.8-21.9c0-0.1,0-0.1-0.1-0.2    l-8.1-1c-0.2,0-0.3-0.2-0.3-0.4l0.2-1.5c0-0.2,0.2-0.3,0.4-0.3l10.3,1.3C120.1,225.2,120.2,225.3,120.1,225.5z"></path>
		<path class="st0" d="M107,223.6l-6.2,23.3c-0.1,0.2-0.2,0.3-0.4,0.2l-1.7-0.5c-0.2-0.1-0.3-0.2-0.3-0.4l5.7-21.4    c0-0.1,0-0.2-0.1-0.2l-7.8-2.1c-0.2-0.1-0.3-0.2-0.3-0.4l0.4-1.4c0.1-0.2,0.2-0.3,0.4-0.2l10.1,2.7    C107,223.2,107.1,223.3,107,223.6z"></path>
		<path class="st0" d="M68.6,232.8c-0.4-1.6-0.1-3.3,0.9-5.2c0.9-1.8,2.1-3,3.6-3.7c1.5-0.6,3-0.6,4.5,0.2l3.2,1.7    c0.1,0,0.1,0,0.2-0.1l4.9-9.5c0.1-0.2,0.3-0.3,0.5-0.2l1.6,0.8c0.2,0.1,0.3,0.3,0.2,0.5l-11,21.5c-0.1,0.2-0.3,0.3-0.5,0.2    l-5.2-2.7C69.9,235.6,68.9,234.4,68.6,232.8z M74.1,226.1c-1,0.5-1.8,1.3-2.4,2.6c-0.6,1.3-0.9,2.4-0.7,3.5    c0.2,1.1,0.8,1.8,1.7,2.3l2.9,1.5c0.1,0,0.1,0,0.2-0.1l4.2-8.1c0-0.1,0-0.1-0.1-0.2l-2.9-1.5C76.1,225.7,75.1,225.7,74.1,226.1z"></path>
		<path class="st0" d="M68.4,205.6l-1.8,4.1c0,0,0,0.1,0,0.1c0,0,0,0.1,0.1,0.1l5.3,3.7c0,0,0.1,0,0.1,0c0,0,0.1,0,0.1-0.1l3.2-3.1    c0.1-0.2,0.3-0.2,0.5,0l1.5,1c0.1,0.1,0.1,0.1,0.2,0.2c0,0.1,0,0.2-0.1,0.3l-18.2,16.7c-0.2,0.1-0.3,0.2-0.5,0l-1.7-1.2    c-0.2-0.1-0.2-0.3-0.1-0.5l9.4-22.8l0-0.1c0.1-0.2,0.3-0.2,0.4-0.1l1.5,1.1C68.5,205.2,68.5,205.4,68.4,205.6z M70.5,215l-4.6-3.2    c-0.1,0-0.1,0-0.2,0.1l-5.7,13c0,0.1,0,0.1,0,0.1c0,0,0.1,0,0.1,0l10.3-9.8C70.5,215.1,70.5,215.1,70.5,215z"></path>
		<path class="st0" d="M57.8,196.1l-4.9,10.5c0,0.1,0,0.1,0,0.2l2.2,2.1c0.1,0.1,0.1,0.1,0.2,0l7.4-7.9c0.2-0.2,0.3-0.2,0.5,0    l1.3,1.2c0.2,0.2,0.2,0.3,0,0.5l-16.5,17.5c-0.2,0.2-0.3,0.2-0.5,0l-4.3-4c-1.3-1.2-1.8-2.6-1.7-4.2c0.1-1.7,0.8-3.2,2.2-4.7    c1.1-1.1,2.2-1.9,3.4-2.2c1.2-0.4,2.4-0.3,3.6,0.1c0.1,0,0.2,0,0.2-0.1l4.8-10.7l0.1-0.1c0.1-0.1,0.2-0.1,0.4,0l1.3,1.3    C57.9,195.8,57.9,195.9,57.8,196.1z M47.7,217l6.1-6.5c0.1-0.1,0.1-0.1,0-0.2l-2.3-2.2c-0.8-0.7-1.7-1-2.8-0.9    c-1.1,0.2-2.1,0.7-3,1.8c-1,1-1.5,2.1-1.6,3.1c-0.1,1.1,0.2,2,1,2.7l2.3,2.2C47.6,217.1,47.6,217.1,47.7,217z"></path>
		<path class="st0" d="M48.3,184.8l-2.9,3.4c0,0-0.1,0.1-0.1,0.1c0,0,0,0.1,0,0.1l4,5c0,0,0.1,0.1,0.1,0.1c0,0,0.1,0,0.1,0l4-2    c0.2-0.1,0.3-0.1,0.5,0.1l1.1,1.4c0.1,0.1,0.1,0.2,0.1,0.3c0,0.1-0.1,0.2-0.2,0.2l-22.2,10.7c-0.2,0.1-0.4,0.1-0.5-0.1l-1.3-1.7    c-0.1-0.2-0.1-0.4,0-0.5l15.6-19.1l0.1,0c0.2-0.1,0.3-0.1,0.4,0.1l1.1,1.4C48.4,184.5,48.4,184.6,48.3,184.8z M47.5,194.4L44,190    c0-0.1-0.1-0.1-0.2,0l-9.2,10.8c0,0.1-0.1,0.1,0,0.1c0,0,0.1,0,0.1,0l12.7-6.4C47.5,194.6,47.5,194.5,47.5,194.4z"></path>
		<path class="st0" d="M15.1,175.5l-0.8-1.7c-0.1-0.2,0-0.4,0.2-0.5l21.8-10.3c0.2-0.1,0.4,0,0.5,0.2l0.8,1.6c0.1,0.2,0,0.4-0.2,0.5    l-17.2,8.1c-0.1,0-0.1,0.1-0.1,0.1c0,0,0.1,0.1,0.1,0.1l8.5,0.1c0.2,0,0.3,0.1,0.4,0.2c0.1,0.2,0.1,0.3-0.1,0.5l-5.3,6.6    c0,0.1,0,0.1,0,0.1s0.1,0,0.1,0l17.2-8.1c0.2-0.1,0.4,0,0.5,0.2l0.8,1.6c0.1,0.2,0,0.4-0.2,0.5l-21.8,10.3c-0.2,0.1-0.4,0-0.5-0.2    l-0.8-1.7c-0.1-0.2-0.1-0.4,0-0.5l5.7-7.1c0,0,0-0.1,0-0.1c0,0-0.1-0.1-0.1-0.1l-9.1-0.1C15.4,175.8,15.2,175.7,15.1,175.5z"></path>
		<path class="st0" d="M8.3,163.6c-0.1,0.1-0.2,0.1-0.3,0l-4.3-1c-0.2-0.1-0.3-0.2-0.4-0.3l-0.4-1.4c0-0.1,0-0.2,0-0.3    s0.2-0.1,0.3,0l4.4,1.3c0.2,0.1,0.3,0.2,0.4,0.3l0.3,1.1C8.3,163.4,8.3,163.5,8.3,163.6z M32.6,150.6l-4,2.1c0,0-0.1,0-0.1,0.1    c0,0,0,0.1,0,0.1l1.8,6.2c0,0,0,0.1,0.1,0.1c0,0,0.1,0,0.1,0l4.5-0.4c0.2,0,0.3,0.1,0.4,0.3l0.5,1.7c0,0.1,0,0.2,0,0.3    c-0.1,0.1-0.1,0.1-0.3,0.1l-24.6,1.6c-0.2,0-0.4-0.1-0.4-0.3l-0.6-2c-0.1-0.2,0-0.4,0.2-0.5l21.7-11.8l0.1,0    c0.2-0.1,0.3,0,0.4,0.2l0.5,1.8C32.8,150.3,32.8,150.5,32.6,150.6z M28.2,159.2l-1.5-5.4c0-0.1-0.1-0.1-0.2-0.1l-12.6,6.6    c-0.1,0-0.1,0.1-0.1,0.1c0,0,0,0,0.1,0l14.2-1.1C28.2,159.3,28.2,159.3,28.2,159.2z"></path>
		<path class="st0" d="M30.5,146.1c-1,1.2-2.4,2-4.3,2.3l-0.8,0.1c-0.2,0-0.4-0.1-0.4-0.3l-0.3-1.7c0-0.2,0.1-0.4,0.3-0.4l0.7-0.1    c1.2-0.2,2.2-0.6,2.9-1.4c0.7-0.7,0.9-1.6,0.8-2.6c-0.1-1-0.6-1.7-1.4-2.3c-0.8-0.5-1.8-0.7-3-0.6c-0.8,0.1-1.5,0.4-2,0.8    c-0.5,0.4-1,0.9-1.3,1.4c-0.4,0.6-0.9,1.5-1.6,2.8c-0.7,1.3-1.3,2.3-1.8,3.1c-0.5,0.8-1.2,1.4-2,2c-0.8,0.6-1.8,0.9-3,1.1    c-1.8,0.3-3.3,0-4.6-0.9s-2-2.2-2.2-3.9c-0.3-1.8,0.1-3.3,1.1-4.5c1-1.2,2.5-2,4.4-2.3l0.9-0.1c0.2,0,0.4,0.1,0.4,0.3l0.3,1.8    c0,0.2-0.1,0.4-0.3,0.4l-0.9,0.1c-1.2,0.2-2.2,0.6-2.9,1.4c-0.7,0.7-0.9,1.6-0.8,2.6c0.1,0.9,0.6,1.7,1.3,2.2    c0.8,0.5,1.7,0.7,3,0.5c0.7-0.1,1.3-0.3,1.9-0.7s1-0.8,1.4-1.4c0.4-0.6,0.9-1.5,1.6-2.7c0.8-1.6,1.5-2.7,2-3.5    c0.5-0.8,1.2-1.4,1.9-1.9c0.7-0.5,1.6-0.8,2.7-1c1.9-0.3,3.5,0,4.9,1c1.3,0.9,2.1,2.3,2.4,4C31.8,143.4,31.4,144.9,30.5,146.1z"></path>
		<path class="st0" d="M29.9,125.8l-24.1-0.7c-0.2,0-0.4-0.1-0.3-0.4l0.1-1.8c0-0.2,0.1-0.4,0.4-0.3l24.1,0.7c0.2,0,0.4,0.1,0.3,0.4    l-0.1,1.8C30.2,125.7,30.1,125.8,29.9,125.8z"></path>
		<path class="st0" d="M7.4,105.1l0.3-1.8c0-0.2,0.2-0.3,0.4-0.3l23.8,3.6c0.2,0,0.3,0.2,0.3,0.4l-0.3,2.1c0,0.2-0.1,0.3-0.3,0.3    l-19.1,4.1c-0.1,0-0.1,0-0.1,0.1c0,0,0,0.1,0.1,0.1l18,2.7c0.2,0,0.3,0.2,0.3,0.4l-0.3,1.8c0,0.2-0.2,0.3-0.4,0.3l-23.8-3.6    c-0.2,0-0.3-0.2-0.3-0.4l0.3-2c0-0.2,0.1-0.3,0.3-0.3l19.2-4.2c0.1,0,0.1,0,0.1-0.1c0,0,0-0.1-0.1-0.1l-18.1-2.7    C7.5,105.4,7.4,105.3,7.4,105.1z"></path>
		<path class="st0" d="M14.9,85.5l-2.4,7.8c0,0.1,0,0.1,0.1,0.2l8.4,2.6c0.1,0,0.1,0,0.2-0.1l1.5-4.9c0.1-0.2,0.2-0.3,0.4-0.2    l1.5,0.5c0.2,0.1,0.3,0.2,0.2,0.4l-1.5,4.9c0,0.1,0,0.1,0.1,0.2l10.3,3.2c0.2,0.1,0.3,0.2,0.2,0.4l-0.5,1.7    c-0.1,0.2-0.2,0.3-0.4,0.2l-23-7.2c-0.2-0.1-0.3-0.2-0.2-0.4l3.1-10c0.1-0.2,0.2-0.3,0.4-0.2l1.4,0.4C14.9,85.2,15,85.3,14.9,85.5    z"></path>
		<path class="st0" d="M36.7,88.2c-1.5,0.5-3.1,0.4-4.8-0.4l-11.7-5.6c-1.7-0.8-2.8-2-3.3-3.5c-0.5-1.5-0.4-3.1,0.4-4.7    c0.8-1.7,2-2.8,3.5-3.3s3.1-0.4,4.8,0.4l11.7,5.6c1.7,0.8,2.8,2,3.3,3.5c0.5,1.5,0.4,3.1-0.4,4.8C39.4,86.6,38.2,87.7,36.7,88.2z     M38.4,81.2c-0.4-0.9-1-1.6-2.1-2.1l-11.9-5.7c-1-0.5-2-0.6-3-0.3c-0.9,0.3-1.6,0.9-2.1,1.9c-0.5,1-0.5,1.9-0.2,2.8    c0.4,0.9,1.1,1.6,2.1,2.1l11.9,5.7c1,0.5,2,0.6,2.9,0.3c0.9-0.3,1.6-0.9,2.1-1.9C38.7,83.1,38.7,82.1,38.4,81.2z"></path>
	</g>
</g>
</svg>
