<?xml version="1.0" encoding="UTF-8"?>
<!-- Generator: Adobe Illustrator 24.0.0, SVG Export Plug-In . SVG Version: 6.00 Build 0)  -->
<svg xmlns="http://www.w3.org/2000/svg" xmlns:xlink="http://www.w3.org/1999/xlink" version="1.1" id="Capa_1" x="0px" y="0px" viewBox="0 0 800 800" style="enable-background:new 0 0 800 800;" xml:space="preserve">
<style type="text/css">
	.st0{fill:#ECECEC;}
</style>
<g>
	<polygon class="st0" points="117.2,185.8 124,191 103.2,218.3 117.8,229.4 137.4,203.7 144.2,208.8 124.6,234.6 140.6,246.8    161.4,219.5 168.3,224.7 141.4,260 90.3,221.2  "></polygon>
	<polygon class="st0" points="216.8,116.7 241,164.9 232.2,169.4 203.4,112.1 217.8,104.8 255.7,144.4 246.5,90.4 261,83.1    289.7,140.5 280.9,144.9 256.7,96.7 265.6,152.6 256.3,157.3  "></polygon>
	<polygon class="st0" points="420.2,57.6 420.3,66.1 386,66.5 386.1,84.8 418.5,84.5 418.6,93 386.2,93.3 386.4,113.5 420.8,113.1    420.9,121.7 376.4,122.2 375.8,58  "></polygon>
	<polygon class="st0" points="564.6,95.8 575.8,100.7 543.4,115.1 552.3,160.5 541.4,155.7 534.3,119.1 521.1,125 513.1,143.2    503.8,139.2 529.6,80.4 538.9,84.5 526.2,113.3  "></polygon>
	<path class="st0" d="M681,179l13.8,0.6l8.2,9.4l-16.4-3.5L681,179z M656.2,220.3l15.8-28.4L641.9,204L656.2,220.3z M684.2,189.1   l-32.3,60.4l-7.2-8.3l7.3-13.1l-18.4-21l-13.9,5.5l-6.8-7.7l63.9-24.4L684.2,189.1z"></path>
	<path class="st0" d="M126.6,543.4c1.5-1.6,2.4-3.2,2.8-5c0.4-1.7,0.4-3.6-0.1-5.5c-0.4-1.9-1-3.7-1.8-5.6l-1.7-4l-27.4,11.2l1.6,4   c0.8,1.8,1.6,3.6,2.6,5.2c1,1.7,2.3,3,3.8,3.9c1.5,1,3.3,1.5,5.5,1.6c2.1,0.1,4.8-0.5,7.8-1.7C122.9,546.4,125.2,545,126.6,543.4    M134.9,534.1c0.4,2.7,0.3,5.3-0.4,7.7c-0.7,2.4-2,4.6-3.9,6.6c-2,2-4.7,3.7-8.3,5.2c-3.6,1.5-6.8,2.2-9.6,2.1   c-2.8-0.1-5.3-0.7-7.4-1.9c-2.2-1.2-4-3-5.7-5.3c-1.6-2.3-3-4.9-4.2-7.8l-4.1-10.1l37-15.1l4.1,10.1   C133.7,528.6,134.5,531.4,134.9,534.1"></path>
	<polygon class="st0" points="175.1,600.4 170.8,603.5 158.3,586.1 149,592.7 160.8,609.2 156.4,612.2 144.7,595.8 134.5,603.1    146.9,620.5 142.5,623.6 126.5,601.1 159.1,577.9  "></polygon>
	<path class="st0" d="M190.1,645.8c-0.6-1.3-1-2.6-1.2-4c-0.2-1.4-0.1-2.7,0.3-4.1c0.4-1.4,1.1-2.7,2.2-3.9c1.2-1.4,2.7-2.3,4.3-2.8   c1.6-0.5,3.2-0.6,4.9-0.3c1.7,0.2,3.3,0.8,4.9,1.6c1.6,0.8,3,1.8,4.3,2.9c1.4,1.2,2.5,2.6,3.5,4c1,1.4,1.6,2.9,2,4.5   c0.4,1.6,0.5,3.2,0.2,4.9c-0.3,1.7-0.9,3.4-1.9,5.2l-4.5-4c0.5-1.1,0.8-2.2,0.8-3.2c0-1-0.1-2-0.5-2.9c-0.3-0.9-0.8-1.8-1.4-2.6   c-0.6-0.8-1.2-1.5-2-2.1c-0.6-0.5-1.2-1-2-1.4c-0.8-0.5-1.7-0.8-2.6-1c-0.9-0.2-1.8-0.2-2.7-0.1c-0.9,0.2-1.7,0.6-2.4,1.4   c-1.1,1.2-1.5,2.6-1.2,4c0.3,1.4,0.9,2.9,2,4.3l2.9,3.9c1,1.3,1.9,2.7,2.7,4.1c0.9,1.4,1.5,2.9,1.8,4.5c0.4,1.5,0.4,3,0.1,4.6   c-0.3,1.5-1.1,3.1-2.5,4.6c-1.3,1.5-2.8,2.5-4.5,3c-1.7,0.5-3.4,0.7-5.1,0.5c-1.7-0.2-3.5-0.7-5.2-1.5c-1.7-0.8-3.3-1.9-4.8-3.2   c-1.7-1.5-3.1-3.2-4.1-4.9c-1-1.7-1.7-3.5-2-5.3c-0.3-1.8-0.2-3.6,0.2-5.5c0.4-1.8,1.3-3.6,2.5-5.3l4.6,4.1c-1.4,2.5-1.9,4.8-1.5,7   c0.4,2.2,1.7,4.3,3.8,6.1c2,1.7,3.9,2.7,5.9,3c2,0.2,3.6-0.4,4.9-1.8c0.7-0.8,1.1-1.6,1.2-2.4c0.1-0.9,0.1-1.7-0.1-2.7   c-0.2-0.9-0.6-1.8-1.1-2.7c-0.5-0.9-1.1-1.8-1.8-2.7l-3-4C191.4,648.3,190.7,647,190.1,645.8"></path>
	<path class="st0" d="M256.6,699.3l3-20.1l-15,13.6L256.6,699.3z M266.1,675l-5.7,42.4l-6-3.3l1.4-9.2l-15.3-8.2l-6.9,6.3l-5.6-3   l32-28.2L266.1,675z"></path>
	<path class="st0" d="M312.6,713.3l7,1.9c1.4,0.4,2.7,0.7,3.9,0.8c1.2,0.2,2.3,0.2,3.3-0.1c1-0.2,1.8-0.7,2.5-1.3   c0.7-0.7,1.2-1.7,1.6-3c0.4-1.4,0.4-2.6,0.1-3.5c-0.3-1-0.8-1.8-1.5-2.4c-0.8-0.7-1.7-1.2-2.8-1.7c-1.1-0.4-2.4-0.8-3.8-1.2   l-6.9-1.9L312.6,713.3z M319.3,720.4l-1.3-0.3l-6.7-1.8l-4.4,16.3l-6.1-1.6l10.4-38.6l12.3,3.3c2.6,0.7,4.9,1.5,6.9,2.4   c2,0.9,3.6,1.9,4.8,3.2c1.2,1.2,2,2.6,2.4,4.3c0.4,1.6,0.3,3.6-0.3,5.8c-0.7,2.8-2,4.8-3.7,6.1c-1.7,1.3-3.9,2-6.5,2.1l4.2,19.7   l-6.8-1.8l-3.9-18.5C320.1,720.6,319.7,720.5,319.3,720.4"></path>
	<path class="st0" d="M382.7,725.5l7.2,0.2c1.5,0,2.8,0,4-0.1c1.2-0.1,2.3-0.4,3.2-0.8c0.9-0.4,1.6-1.1,2.1-1.9   c0.5-0.8,0.8-1.9,0.8-3.3c0-1.4-0.2-2.6-0.7-3.4c-0.5-0.9-1.2-1.5-2.1-2c-0.9-0.5-1.9-0.8-3.1-1c-1.2-0.2-2.5-0.3-4-0.3l-7.1-0.2   L382.7,725.5z M390.8,730.8l-1.3,0l-6.9-0.2l-0.5,16.8l-6.3-0.2l1.1-40l12.7,0.3c2.7,0.1,5.1,0.3,7.2,0.7c2.1,0.4,3.9,1,5.4,1.9   c1.4,0.9,2.5,2.1,3.3,3.6c0.8,1.5,1.1,3.4,1,5.7c-0.1,2.9-0.8,5.1-2.2,6.8c-1.4,1.7-3.3,2.8-5.8,3.5l8.7,18.2l-7.1-0.2l-8.1-17.1   C391.6,730.8,391.2,730.8,390.8,730.8"></path>
	<path class="st0" d="M454.4,729.6c1,1.7,2.3,3.1,3.6,4.2c1.4,1,2.9,1.7,4.5,2.1c1.6,0.3,3.3,0.3,5-0.1c1.7-0.4,3.2-1.1,4.5-2   c1.3-1,2.4-2.2,3.2-3.8c0.8-1.5,1.3-3.3,1.5-5.3c0.2-2,0.1-4.3-0.5-6.7c-0.5-2.4-1.3-4.5-2.4-6.3c-1-1.7-2.3-3.1-3.6-4.2   c-1.4-1-2.9-1.7-4.5-2c-1.6-0.3-3.3-0.3-5,0.1c-1.7,0.4-3.3,1.1-4.6,2c-1.3,1-2.4,2.2-3.2,3.7c-0.8,1.5-1.3,3.3-1.5,5.3   c-0.2,2-0.1,4.3,0.5,6.7C452.6,725.8,453.4,727.9,454.4,729.6 M483.2,725.1c-0.3,2.7-1.1,5.1-2.3,7.2c-1.2,2.2-2.8,4-4.9,5.5   c-2,1.5-4.5,2.5-7.3,3.2c-2.8,0.6-5.5,0.7-8,0.2c-2.5-0.5-4.8-1.5-6.7-2.9c-2-1.4-3.7-3.3-5.1-5.6c-1.4-2.3-2.4-4.9-3.1-7.9   c-0.7-3-0.8-5.8-0.5-8.5c0.3-2.7,1.1-5.1,2.3-7.2c1.2-2.1,2.9-3.9,4.9-5.4c2.1-1.5,4.5-2.6,7.4-3.2c2.8-0.6,5.5-0.7,8-0.2   c2.5,0.5,4.7,1.4,6.7,2.9c2,1.4,3.7,3.3,5.1,5.6c1.4,2.3,2.4,4.9,3.1,7.9C483.3,719.6,483.5,722.4,483.2,725.1"></path>
	<polygon class="st0" points="552.1,703.9 554.4,708.7 530.1,720.4 512.8,684.3 518.5,681.6 533.5,712.8  "></polygon>
	<polygon class="st0" points="608.5,665.1 611.8,669.3 590.5,685.8 566,654.2 571,650.4 592.2,677.7  "></polygon>
	<path class="st0" d="M634.1,628.3c1.9,0.7,3.7,1.1,5.4,1c1.7,0,3.3-0.4,4.8-1.2c1.5-0.7,2.8-1.8,3.9-3.2c1.1-1.3,1.8-2.8,2.3-4.4   c0.4-1.6,0.5-3.2,0.2-4.9c-0.3-1.7-1-3.4-2.1-5.1c-1.1-1.7-2.6-3.4-4.5-5c-1.9-1.6-3.9-2.7-5.8-3.5c-1.9-0.7-3.7-1.1-5.4-1   c-1.7,0-3.3,0.4-4.8,1.2c-1.5,0.7-2.7,1.8-3.8,3.1c-1.1,1.4-1.9,2.8-2.3,4.4c-0.4,1.6-0.5,3.2-0.2,4.9c0.3,1.7,1,3.4,2.1,5.1   c1.1,1.7,2.6,3.4,4.5,5C630.2,626.4,632.2,627.6,634.1,628.3 M653.8,606.9c1.4,2.3,2.3,4.6,2.7,7.1c0.4,2.4,0.2,4.9-0.4,7.3   c-0.7,2.4-1.9,4.8-3.8,7c-1.8,2.3-3.9,4-6.2,5.1c-2.3,1.2-4.6,1.8-7.1,1.9c-2.5,0.1-4.9-0.3-7.5-1.2c-2.5-0.9-5-2.3-7.3-4.3   c-2.4-1.9-4.3-4-5.7-6.3c-1.4-2.3-2.3-4.6-2.7-7.1c-0.4-2.4-0.2-4.9,0.5-7.3c0.7-2.4,2-4.8,3.8-7.1c1.8-2.3,3.9-4,6.1-5.1   c2.3-1.2,4.6-1.8,7.1-1.9c2.4-0.1,4.9,0.3,7.4,1.2c2.5,0.9,5,2.4,7.3,4.3C650.5,602.5,652.4,604.6,653.8,606.9"></path>
	<path class="st0" d="M672.1,560.7c-1.1,1-2.2,1.7-3.5,2.3c-1.3,0.5-2.6,0.8-4,0.8c-1.4,0-2.9-0.3-4.4-1.1c-1.7-0.8-3-1.9-3.9-3.3   c-0.9-1.4-1.4-2.9-1.7-4.6c-0.2-1.7-0.2-3.4,0.2-5.1c0.3-1.7,0.9-3.4,1.6-4.9c0.8-1.7,1.7-3.2,2.9-4.5c1.1-1.3,2.4-2.4,3.8-3.2   c1.4-0.8,3-1.3,4.7-1.6c1.7-0.2,3.5-0.1,5.5,0.4l-2.6,5.5c-1.2-0.2-2.3-0.2-3.3,0.1c-1,0.2-1.9,0.7-2.7,1.2   c-0.8,0.6-1.5,1.3-2.1,2.1c-0.6,0.8-1.1,1.6-1.5,2.5c-0.3,0.7-0.6,1.5-0.8,2.4s-0.3,1.8-0.3,2.7c0.1,0.9,0.3,1.8,0.7,2.6   c0.4,0.8,1.1,1.4,2,1.9c1.5,0.7,2.9,0.7,4.2,0.1c1.3-0.7,2.5-1.7,3.6-3.1l2.9-3.9c1-1.3,2-2.5,3.2-3.8c1.2-1.2,2.4-2.2,3.8-3   c1.3-0.8,2.8-1.2,4.4-1.4c1.6-0.1,3.3,0.2,5.1,1.1c1.8,0.9,3.2,2,4.2,3.4c1,1.4,1.6,3,1.9,4.8c0.3,1.7,0.3,3.5-0.1,5.4   c-0.3,1.9-0.9,3.7-1.7,5.5c-1,2.1-2.2,3.9-3.6,5.3c-1.4,1.5-2.9,2.6-4.6,3.4c-1.7,0.8-3.4,1.2-5.3,1.3c-1.9,0.1-3.8-0.2-5.8-0.9   l2.7-5.6c2.7,0.7,5.1,0.5,7.1-0.5c2-1,3.6-2.8,4.9-5.4c1.1-2.4,1.5-4.5,1.2-6.5c-0.3-2-1.4-3.4-3.1-4.2c-0.9-0.4-1.8-0.6-2.7-0.5   c-0.9,0.1-1.7,0.4-2.5,0.8c-0.8,0.5-1.6,1.1-2.3,1.8c-0.7,0.8-1.4,1.6-2.1,2.4l-3,4C674.1,558.6,673.1,559.7,672.1,560.7"></path>
	<polygon class="st0" points="57.2,385.3 57.2,448 50.8,448 50.8,379.2 61.1,379.2 83.8,440.7 106.5,379.2 116.6,379.2 116.6,448    110.3,448 110.3,385.3 86.9,448 80.5,448  "></polygon>
	<polygon class="st0" points="731.5,376.1 739.7,376.1 710.7,405.6 740.7,444.9 733,444.9 706.2,410.2 696.8,419.8 696.8,444.9    690.5,444.9 690.5,376.1 696.8,376.1 696.8,411.4  "></polygon>
	<path class="st0" d="M400,789.4c-185.7,0-341.5-130.7-380.2-305h154.7c34.3,91.2,122.4,156.3,225.4,156.3   c103.1,0,191.2-65.1,225.4-156.3h154.7C741.5,658.7,585.7,789.4,400,789.4 M10.6,400c0-17.2,1.1-34.2,3.3-50.9h150.8   c-3.5,16.4-5.4,33.4-5.4,50.9c0,26.6,4.4,52.3,12.4,76.2H18.1C13.2,451.6,10.6,426.1,10.6,400 M191.9,296.1v207.8   c-15.7-31.3-24.6-66.6-24.6-103.9C167.4,362.7,176.2,327.4,191.9,296.1 M247.8,224.3v351.4c-18-15.6-33.7-34-46.2-54.4V278.7   C214.1,258.3,229.7,239.9,247.8,224.3 M303.6,188.3v423.3c-16.5-7.6-32-17-46.2-28V216.4C271.6,205.3,287.1,195.9,303.6,188.3    M400,10.6c194.7,0,356.4,143.6,384.9,330.4H633.4c-2.7-10.6-6-20.9-10.1-30.9c-1.1-2.9-2.3-5.7-3.6-8.5   c-8.1-18-18.3-34.8-30.4-50.1c-2-2.5-4-4.9-6-7.3c-9.8-11.5-20.7-22.1-32.5-31.7c-2.5-2-5-3.9-7.5-5.8   c-40.1-29.8-89.6-47.4-143.3-47.4c-53.3,0-102.6,17.4-142.6,46.9c-3.3,2.4-6.5,4.9-9.6,7.5c-17.7,14.5-33.2,31.4-46.2,50.2   c-3.4,4.9-6.6,10-9.6,15.2c-11.2,19.1-19.7,39.9-25.3,61.9H15.1C43.6,154.2,205.3,10.6,400,10.6 M640.7,400   c0-17.5-1.9-34.5-5.5-50.9h150.8c2.2,16.7,3.3,33.7,3.3,50.9c0,26.2-2.6,51.8-7.6,76.6v-0.4H628.3   C636.3,452.3,640.7,426.6,640.7,400 M494.2,434.5l32.7-31.5l88.6,84.5c-6.1,15-13.7,29.3-22.7,42.6L494.2,434.5z M454.7,472.5   l32.7-31.5l99.7,97c-9.2,12.4-19.6,23.9-31,34.3L454.7,472.5z M313.3,351l86.4,83.3l183.8-177.1c11.8,15.2,21.8,31.8,29.7,49.6   L441.5,472.2l0.3,0.3l-0.3,0.4l107.3,105.8c-40.4,33.7-92.3,54-148.8,54c-30.7,0-59.9-6-86.7-16.8V351z M399.7,268.9l-87.4-84.3   c27.1-11.1,56.7-17.3,87.8-17.3c30.9,0,60.4,6.1,87.4,17.1L399.7,268.9z M439.2,307l-32.7-31.5l90.3-87c14.4,6.6,28,14.6,40.6,23.9   L439.2,307z M445.9,313.5l98.9-95.4c11.9,9.5,22.8,20.1,32.6,31.6L478.6,345L445.9,313.5z M432.4,389.6l-32.7,31.5l-86.4-83.3v-63   L432.4,389.6z M313.3,261.8v-63l0.2,0.2l158.4,152.7l-32.7,31.5L313.3,261.8z M619.1,476.3v1.2l-85.4-81.1l83.2-80.2   c10.1,26,15.7,54.3,15.7,83.8c0,26.7-4.6,52.3-12.9,76.2H619.1z M400,2.4C180.8,2.4,2.4,180.8,2.4,400   c0,219.2,178.3,397.6,397.6,397.6c219.2,0,397.6-178.3,397.6-397.6C797.6,180.8,619.2,2.4,400,2.4"></path>
</g>
</svg>
