<?xml version="1.0" standalone="no"?>
<!DOCTYPE svg PUBLIC "-//W3C//DTD SVG 20010904//EN"
 "http://www.w3.org/TR/2001/REC-SVG-20010904/DTD/svg10.dtd">
<svg version="1.0" xmlns="http://www.w3.org/2000/svg"
 width="192.000000pt" height="192.000000pt" viewBox="0 0 192.000000 192.000000"
 preserveAspectRatio="xMidYMid meet">

<g transform="translate(0.000000,192.000000) scale(0.100000,-0.100000)"
fill="#000000" stroke="none">
<path d="M182 960 c2 -358 6 -550 13 -550 7 0 11 192 13 550 2 486 0 550 -13
550 -13 0 -15 -64 -13 -550z"/>
<path d="M370 954 c0 -440 3 -555 13 -552 9 4 13 126 15 556 2 487 0 552 -13
552 -13 0 -15 -67 -15 -556z"/>
<path d="M552 958 c3 -484 5 -553 18 -553 13 0 16 39 20 271 l5 272 138 -134
138 -134 24 18 c13 10 207 196 431 413 277 268 402 395 390 397 -20 4 -57 -28
-256 -222 -80 -78 -184 -179 -233 -226 l-87 -84 -50 49 c-28 27 -50 52 -50 56
0 6 193 198 360 357 67 64 72 72 49 72 -15 0 -36 -12 -55 -31 -16 -17 -109
-108 -207 -202 l-178 -170 -53 52 -53 52 151 149 c112 111 146 150 130 150
-13 0 -71 -48 -161 -135 -78 -74 -144 -135 -148 -135 -4 0 -70 61 -148 135
-77 74 -149 135 -159 135 -17 0 -18 -21 -16 -552z m386 171 c94 -92 172 -171
172 -177 0 -5 -23 -31 -52 -57 l-51 -46 -101 98 c-56 54 -149 145 -208 203
l-108 105 0 104 0 105 88 -85 c48 -46 165 -159 260 -250z m-173 -90 c77 -75
158 -152 180 -172 l40 -36 -54 -55 -54 -55 -143 137 -144 137 0 104 c0 123
-20 129 175 -60z"/>
<path d="M1315 839 c-159 -154 -291 -283 -293 -288 -4 -12 144 -151 162 -151
28 0 17 17 -53 82 l-70 65 54 53 54 53 125 -119 c130 -122 153 -140 164 -130
3 4 -54 67 -128 141 l-135 135 53 52 53 51 72 -69 c40 -38 129 -124 198 -192
110 -106 159 -142 159 -114 0 4 -91 95 -202 202 l-201 195 163 157 c131 127
158 158 139 158 -18 -1 -101 -76 -314 -281z"/>
</g>
</svg>
