<?xml version="1.0" encoding="UTF-8" standalone="no"?>
<!DOCTYPE svg PUBLIC "-//W3C//DTD SVG 1.1//EN" "http://www.w3.org/Graphics/SVG/1.1/DTD/svg11.dtd">
<svg width="100%" height="100%" viewBox="0 0 240 240" version="1.1" xmlns="http://www.w3.org/2000/svg" xmlns:xlink="http://www.w3.org/1999/xlink" xml:space="preserve" xmlns:serif="http://www.serif.com/" style="fill-rule:evenodd;clip-rule:evenodd;stroke-linejoin:round;stroke-miterlimit:2;">
    <g transform="matrix(0.702505,0.599209,0,0.702505,-348.462,-514.839)">
        <path d="M655.115,501.258L500.532,554.337C499.365,554.737 498.9,553.703 499.495,552.03C500.089,550.356 501.519,548.672 502.686,548.271L529.619,539.024L529.619,449.933C529.619,448.913 530.271,447.451 531.238,446.302L548.769,425.479L548.769,370.117C548.769,369.2 549.298,367.914 550.127,366.814L597.324,304.235L597.324,261.679C597.324,260.789 597.822,259.548 598.615,258.466L666.024,166.447C666.04,166.424 666.057,166.401 666.074,166.378C666.81,165.374 667.688,164.658 668.393,164.487C668.412,164.483 668.43,164.479 668.448,164.475L728.602,152.261C729.275,152.124 729.682,152.526 729.682,153.329L729.682,203.949L770.763,190.737C771.538,190.488 772.022,190.88 772.022,191.758L772.022,235.626L796.61,223.021C797.571,222.528 798.218,222.88 798.218,223.895L798.218,308.602L831.031,264.427C832.205,262.846 833.629,262.114 834.208,262.795C834.788,263.475 834.305,265.31 833.13,266.891L729.22,406.783L702.05,443.672C701.69,444.161 701.297,444.58 700.907,444.9L665.701,492.298L681.838,486.757C683.005,486.356 683.469,487.39 682.875,489.064C682.28,490.737 680.851,492.422 679.684,492.822L660.391,499.447L640.433,526.316C639.258,527.897 637.835,528.628 637.255,527.948C636.676,527.268 637.159,525.432 638.333,523.851L655.115,501.258ZM658.077,300.649L534.364,447.593L534.364,537.005L658.077,494.517L658.077,300.649ZM599.699,306.335L553.514,367.572C553.514,367.572 553.514,418.809 553.514,418.809L568.511,401.141L568.511,369.928C568.511,368.965 569.094,367.6 569.985,366.475L637.532,281.221C638.264,280.298 639.096,279.672 639.753,279.553C640.409,279.434 640.803,279.836 640.803,280.627L640.803,315.978L658.077,295.629L658.077,228.943L600.718,305.234C600.394,305.664 600.046,306.038 599.699,306.335ZM664.783,173.471L602.069,259.083L602.069,297.943L659.427,221.889L659.435,221.88C660.169,220.905 661.031,220.223 661.718,220.072C661.728,220.07 661.739,220.068 661.749,220.066C661.76,220.063 661.771,220.061 661.783,220.059L664.783,219.465L664.783,173.471ZM669.528,169.915L669.528,218.524L687.532,214.957L687.871,214.886C688.549,214.744 688.959,215.147 688.958,215.954L688.958,215.956L688.958,278.179L724.937,259.744C724.937,259.744 724.937,209.421 724.937,209.418L724.937,158.664C724.937,158.664 669.528,169.915 669.528,169.915ZM780.491,331.876L793.473,314.373L793.473,229.641L662.821,296.619L662.821,490.519L698.608,442.271L698.608,305.573C698.608,304.828 698.958,303.828 699.553,302.872C700.149,301.916 700.92,301.115 701.636,300.71L778.773,257.086C779.79,256.511 780.491,256.843 780.491,257.901L780.491,331.876ZM618.745,341.963C628.56,330.321 636.058,321.427 636.058,321.427L636.058,288.208L573.256,367.473L573.256,395.551L618.745,341.963ZM662.821,225.616L662.821,291.604L684.188,280.62L684.213,221.294L665.871,225.127C665.742,225.154 665.623,225.161 665.515,225.15L662.821,225.616ZM703.353,435.874L775.746,338.273L775.746,263.735C775.746,263.735 703.353,304.676 703.353,304.676L703.353,435.874ZM767.277,197.231L729.688,209.32C729.688,209.32 729.761,257.242 729.761,257.242L767.277,237.956L767.277,197.231Z" style="fill:rgb(34,34,34);"/>
    </g>
</svg>
