<?xml version="1.0" encoding="UTF-8" standalone="no"?>
<!DOCTYPE svg PUBLIC "-//W3C//DTD SVG 1.1//EN" "http://www.w3.org/Graphics/SVG/1.1/DTD/svg11.dtd">
<svg width="100%" height="100%" viewBox="0 0 240 240" version="1.1" xmlns="http://www.w3.org/2000/svg" xmlns:xlink="http://www.w3.org/1999/xlink" xml:space="preserve" xmlns:serif="http://www.serif.com/" style="fill-rule:evenodd;clip-rule:evenodd;stroke-linejoin:round;stroke-miterlimit:2;">
    <g transform="matrix(0.691816,0,0,0.619596,-675.36,-468.712)">
        <path d="M1002.85,1002.38C992.63,985.929 983.937,966.53 977.017,943.964C976.586,942.56 977.258,941.029 978.516,940.548C979.774,940.067 981.145,940.817 981.575,942.221C987.65,962.031 995.115,979.345 1003.8,994.308C1010.21,993.129 1016.21,990.593 1022.52,987.64L1022.52,846.417C1022.52,845.484 1022.96,844.617 1023.67,844.127L1077.8,806.902C1078.17,806.646 1078.6,806.506 1079.04,806.503C1079.38,806.5 1079.71,806.575 1080.01,806.722L1104.52,818.51L1161.52,781.142C1161.89,780.9 1162.31,780.772 1162.74,780.772C1163.15,780.772 1163.55,780.887 1163.9,781.106L1237.68,826.507C1238.44,826.98 1238.92,827.883 1238.92,828.863L1238.92,874.755L1281.16,894.895C1282.05,895.318 1282.63,896.291 1282.63,897.369L1282.63,944.077C1282.63,944.111 1282.63,944.146 1282.63,944.18L1282.63,1011.64C1294.25,1007.54 1306.58,1001.63 1319.74,993.5C1320.62,992.956 1321.71,993.079 1322.47,993.809C1323.24,994.538 1323.51,995.72 1323.17,996.774C1323.17,996.774 1283.2,1119.54 1153.61,1119.54C1053.4,1119.54 1025,1053.2 1002.85,1002.38ZM1027.34,985.354C1028.74,984.686 1030.17,984.009 1031.62,983.334C1036.01,981.297 1040.65,979.262 1045.73,977.461L1045.73,914.264C1045.73,913.139 1046.36,912.133 1047.3,911.742L1065.03,904.396L1065.03,845.941C1065.03,844.987 1065.48,844.104 1066.22,843.621L1076.82,836.669L1076.68,813.988L1027.34,847.92L1027.34,985.354ZM1050.55,975.873C1055,974.518 1059.79,973.373 1065.03,972.57L1065.03,910.135C1059.91,912.255 1050.55,916.134 1050.55,916.134L1050.55,975.873ZM1069.85,971.945C1078.13,971.063 1087.49,971.046 1098.27,972.345C1119.28,974.875 1139.18,985.357 1160.33,995.841L1160.33,788.161L1069.85,847.481L1069.85,906.215C1069.85,906.249 1069.85,906.283 1069.85,906.316L1069.85,971.945ZM1165.15,998.215C1167.94,999.578 1170.75,1000.93 1173.59,1002.26C1191.98,1010.83 1211.65,1018.17 1234.11,1019.23L1234.11,876.576C1234.1,876.544 1234.1,876.513 1234.11,876.482L1234.11,830.452L1165.15,788.016L1165.15,998.215ZM1238.92,1019.35C1243.58,1019.38 1248.36,1019.13 1253.27,1018.57L1253.27,934.195C1253.27,933.318 1253.65,932.496 1254.3,931.993C1254.94,931.489 1255.76,931.368 1256.5,931.666L1277.81,940.291L1277.81,899.145L1238.92,880.605L1238.92,1019.35ZM1258.09,1017.91C1264.43,1016.92 1271,1015.4 1277.81,1013.25L1277.81,946.013L1258.09,938.032L1258.09,1017.91ZM1017.19,1022.4C1038.23,1066.97 1070.42,1114.16 1153.61,1114.16C1261.21,1114.16 1305.36,1027.28 1315.99,1001.85C1253.87,1037.78 1210.09,1025.1 1171.74,1007.22C1145.93,995.192 1122.66,980.693 1097.76,977.693C1067.48,974.047 1048.83,981.167 1033.47,988.301C1023.98,992.711 1015.69,997.095 1006.8,999.155C1006.87,999.315 1006.94,999.475 1007.01,999.635C1018.65,1018.31 1032.32,1033.06 1047.64,1044.2C1090.56,1075.4 1146.35,1078.28 1206.68,1060.31C1207.97,1059.93 1209.29,1060.78 1209.63,1062.22C1209.97,1063.65 1209.21,1065.13 1207.92,1065.51C1146.12,1083.92 1088.98,1080.67 1045.01,1048.71C1035.03,1041.45 1025.72,1032.71 1017.19,1022.4ZM1099.37,821.889C1094.19,819.399 1085.55,815.245 1081.49,813.292L1081.62,833.523L1099.37,821.889ZM1180.1,899.008L1180.17,851.884C1180.17,850.996 1180.56,850.165 1181.22,849.665C1181.88,849.165 1182.71,849.06 1183.46,849.384L1215.79,863.545C1216.71,863.946 1217.32,864.931 1217.32,866.031L1217.57,909.147C1217.58,909.991 1217.23,910.789 1216.62,911.301C1216.02,911.814 1215.24,911.982 1214.52,911.756L1181.86,901.603C1180.82,901.279 1180.1,900.217 1180.1,899.008ZM1184.92,896.97L1212.73,905.617L1212.52,867.888L1184.98,855.83L1184.92,896.97ZM1180.23,958.197L1180.23,921.506C1180.23,920.704 1180.55,919.943 1181.1,919.432C1181.65,918.921 1182.38,918.713 1183.09,918.865L1215.08,925.739C1216.22,925.983 1217.04,927.091 1217.04,928.38L1217.04,960.103C1217.04,960.841 1216.76,961.547 1216.28,962.055C1215.8,962.563 1215.16,962.829 1214.5,962.789L1182.51,960.883C1181.23,960.807 1180.23,959.627 1180.23,958.197ZM1185.04,955.647L1212.22,957.266C1212.22,957.266 1212.22,930.602 1212.22,930.602C1212.22,930.602 1185.04,924.763 1185.04,924.763L1185.04,955.647ZM1138.43,903.223L1105.14,913.586C1104.41,913.813 1103.62,913.644 1103.03,913.13C1102.42,912.616 1102.07,911.816 1102.08,910.971L1102.42,869.054C1102.43,868.044 1102.94,867.124 1103.75,866.672L1137.3,847.966C1138.05,847.546 1138.94,847.595 1139.65,848.094C1140.36,848.592 1140.79,849.469 1140.78,850.407L1140.19,900.666C1140.18,901.861 1139.46,902.902 1138.43,903.223ZM1135.4,898.581C1135.4,898.581 1135.91,854.751 1135.91,854.751L1107.23,870.749L1106.93,907.444L1135.4,898.581ZM1138.16,961.172L1104.69,963.17C1104.03,963.209 1103.38,962.942 1102.9,962.431C1102.42,961.92 1102.15,961.211 1102.15,960.47L1102.29,929.703C1102.29,928.42 1103.11,927.319 1104.24,927.076L1137.57,919.875C1138.28,919.722 1139.01,919.93 1139.57,920.441C1140.12,920.952 1140.44,921.713 1140.44,922.516L1140.44,958.486C1140.44,959.916 1139.44,961.096 1138.16,961.172ZM1135.62,955.936L1135.62,925.776C1135.62,925.776 1107.1,931.938 1107.1,931.938C1107.1,931.938 1106.98,957.645 1106.98,957.645L1135.62,955.936Z" style="fill:rgb(34,34,34);"/>
    </g>
</svg>
