<?xml version="1.0" encoding="UTF-8"?>
<svg xmlns="http://www.w3.org/2000/svg" width="20" height="20" viewBox="0 0 20 20" fill="none">
  <g clip-path="url(#clip0_16_80)">
    <path d="M19.6 10.0002C19.6 4.69826 15.3019 0.400218 10 0.400219C4.69812 0.400219 0.400085 4.69826 0.400085 10.0002C0.400085 15.3021 4.69812 19.6001 10 19.6001C15.3019 19.6001 19.6 15.3021 19.6 10.0002Z" fill="#FDC643"></path>
    <path fill-rule="evenodd" clip-rule="evenodd" d="M9.01718 14.6014C8.69194 14.9266 8.16415 14.9266 7.8389 14.6014C7.51366 14.2762 7.51366 13.7484 7.8389 13.4231L11.2619 10.0002L7.8389 6.57721C7.51366 6.25197 7.51366 5.72379 7.8389 5.39854C8.16414 5.0733 8.69194 5.0733 9.01718 5.39854L13.0297 9.41064C13.3549 9.73627 13.3549 10.2637 13.0297 10.5893L9.01718 14.6014Z" fill="#020203"></path>
  </g>
  <defs>
    <clipPath id="clip0_16_80">
      <rect width="20" height="20" fill="white" transform="translate(0 20) rotate(-90)"></rect>
    </clipPath>
  </defs>
</svg>
